<svg xmlns="http://www.w3.org/2000/svg" viewBox="0 0 31.3 30.94"><defs><style>.a{fill:#fff;}</style></defs><title>cat-notice</title><path class="a" d="M15.65,0A15.57,15.57,0,0,0,0,15.47,15.57,15.57,0,0,0,15.65,30.94,15.56,15.56,0,0,0,31.3,15.47,15.56,15.56,0,0,0,15.65,0ZM17,23.36c0,.49-.14.59-.68.59H15c-.55,0-.69-.1-.69-.59,0-.17.05-2.13.05-3.2V15.59c0-1.07-.05-3-.05-3.2,0-.5.14-.59.69-.59h1.37c.54,0,.68.09.68.59,0,.17,0,2.13,0,3.2v4.57C17,21.23,17,23.19,17,23.36Zm-1.44-13A1.55,1.55,0,0,1,14,8.79,1.71,1.71,0,0,1,15.72,7a1.53,1.53,0,0,1,1.64,1.52A1.73,1.73,0,0,1,15.58,10.38Z"/></svg>