<svg viewBox="0 0 512 510.83" xmlns="http://www.w3.org/2000/svg"><g fill="#fff"><path d="m449.73 211.73v-.23l-61 61v175.75a1.68 1.68 0 0 1 -1.6 1.61h-324.47a1.74 1.74 0 0 1 -1.66-1.61v-324.56a1.74 1.74 0 0 1 1.68-1.61h178.04l35.68-35.67 25.3-25.14h-.16l.16-.17h-239a62.69 62.69 0 0 0 -62.7 62.59v324.56a62.68 62.68 0 0 0 62.66 62.58h324.49a62.62 62.62 0 0 0 62.58-62.58v-139l.11-97.62z"/><path d="m473.38 38.6c-26.38-26.36-52.29-43.15-57.93-37.51a3.31 3.31 0 0 0 -.5.62l-41.41 41.41-5.2 5.18a0 0 0 0 0 0 0l-.12.12a560.45 560.45 0 0 1 50.58 44.77 562.12 562.12 0 0 1 44.76 50.56l46.71-46.75a2.79 2.79 0 0 0 .64-.49c5.64-5.6-11.17-31.51-37.53-57.91z"/><path d="m124.68 387.31 127.65-32.31 189.75-189.78a501.26 501.26 0 0 0 -44.68-50.63 507.32 507.32 0 0 0 -50.64-44.69l-189.76 189.75zm49.93-121.92a28.65 28.65 0 0 0 8.31 21.53c10.21 10.21 26.36 10.95 38.26 2.55a34.22 34.22 0 0 0 3.78-2.94c-11.49 12-11.8 30.64-.49 42a28.45 28.45 0 0 0 21.25 8.17 9.52 9.52 0 0 1 1.46.13l-3.29 3.29-68.23 17.3-21-21.05 17.3-68.23z"/></g></svg>