<?xml version="1.0" encoding="UTF-8"?>
<svg width="197px" height="42px" viewBox="0 0 197 42" version="1.1" xmlns="http://www.w3.org/2000/svg" xmlns:xlink="http://www.w3.org/1999/xlink">
    <!-- Generator: Sketch 51.2 (57519) - http://www.bohemiancoding.com/sketch -->
    <title>ABOUT</title>
    <desc>Created with Sketch.</desc>
    <defs></defs>
    <g id="main" stroke="none" stroke-width="1" fill="none" fill-rule="evenodd">
        <g id="PC-top" transform="translate(-294.000000, -2154.000000)" fill="#FFFFFF">
            <path d="M321.702,2187.25 L308.31,2187.25 C307.446,2187.25 307.068,2187.52 306.744,2188.384 C306.366,2189.41 305.934,2190.436 305.124,2192.866 C304.638,2194.162 304.368,2194.378 302.964,2194.378 L296.16,2194.378 C295.296,2194.378 294.918,2194.27 294.918,2193.838 C294.918,2193.622 295.026,2193.352 295.242,2192.92 C297.24,2188.438 298.32,2186.008 299.238,2183.848 L307.176,2165.218 C308.202,2162.734 309.498,2159.764 310.902,2156.092 C311.442,2154.796 311.712,2154.58 313.116,2154.58 L317.382,2154.58 C318.786,2154.58 319.056,2154.796 319.596,2156.092 C321,2159.764 322.296,2162.842 323.268,2165.056 L331.206,2183.632 C332.232,2186.008 333.312,2188.438 335.31,2192.92 C335.526,2193.352 335.634,2193.622 335.634,2193.838 C335.634,2194.27 335.256,2194.378 334.392,2194.378 L327.048,2194.378 C325.644,2194.378 325.374,2194.162 324.888,2192.866 C324.078,2190.436 323.646,2189.41 323.268,2188.384 C322.944,2187.466 322.674,2187.25 321.702,2187.25 Z M314.412,2169.214 L310.74,2178.394 C310.578,2178.772 310.524,2179.096 310.524,2179.312 C310.524,2179.798 310.902,2179.906 311.766,2179.906 L318.246,2179.906 C319.11,2179.906 319.488,2179.798 319.488,2179.312 C319.488,2179.096 319.434,2178.772 319.272,2178.394 L315.6,2169.214 C315.438,2168.782 315.222,2168.566 315.006,2168.566 C314.79,2168.566 314.574,2168.782 314.412,2169.214 Z M354.534,2194.378 L349.08,2194.378 C346.596,2194.378 341.844,2194.486 341.466,2194.486 C340.332,2194.486 339.954,2194.108 339.954,2192.974 C339.954,2192.596 340.116,2186.602 340.116,2183.74 L340.116,2165.218 C340.116,2162.356 339.954,2156.362 339.954,2155.984 C339.954,2154.85 340.332,2154.472 341.466,2154.472 C341.844,2154.472 346.596,2154.58 349.08,2154.58 L354.588,2154.58 C363.012,2154.58 368.034,2156.794 368.034,2163.922 C368.034,2167.054 367.332,2169.97 364.74,2172.13 C364.308,2172.508 364.092,2172.724 364.092,2172.94 C364.092,2173.156 364.362,2173.318 364.956,2173.588 C367.764,2174.884 369.816,2177.476 369.816,2181.904 C369.816,2190.652 364.47,2194.378 354.534,2194.378 Z M349.134,2163.706 L349.134,2168.458 C349.134,2169.808 349.404,2170.078 350.754,2170.078 L353.832,2170.078 C357.45,2170.078 359.016,2168.566 359.016,2165.542 C359.016,2163.274 357.504,2162.086 354.372,2162.086 L350.754,2162.086 C349.404,2162.086 349.134,2162.356 349.134,2163.706 Z M349.134,2178.988 L349.134,2185.36 C349.134,2186.71 349.404,2186.98 350.754,2186.98 L354.264,2186.98 C358.26,2186.98 360.636,2185.144 360.636,2181.85 C360.636,2179.042 359.178,2177.368 355.182,2177.368 L350.754,2177.368 C349.404,2177.368 349.134,2177.638 349.134,2178.988 Z M394.386,2154.256 C407.778,2154.256 413.826,2164.786 413.826,2174.128 C413.826,2187.304 404.484,2194.702 393.468,2194.702 C380.238,2194.702 374.082,2184.064 374.082,2174.668 C374.082,2161.816 382.938,2154.256 394.386,2154.256 Z M394.062,2163.328 C387.744,2163.328 383.478,2167.918 383.478,2174.722 C383.478,2180.23 386.394,2186.116 393.846,2186.116 C399.84,2186.116 404.43,2181.796 404.43,2174.722 C404.43,2169.376 401.46,2163.328 394.062,2163.328 Z M453.57,2165.38 L453.57,2181.148 C453.57,2189.896 446.334,2195.134 435.858,2195.134 C425.382,2195.134 419.334,2189.842 419.334,2181.256 L419.334,2165.38 C419.334,2162.518 419.172,2156.308 419.172,2155.93 C419.172,2154.796 419.496,2154.58 420.738,2154.58 L427.11,2154.58 C428.352,2154.58 428.676,2154.796 428.676,2155.93 C428.676,2156.308 428.514,2162.518 428.514,2165.38 L428.514,2179.582 C428.514,2184.064 431.376,2186.602 436.236,2186.602 C441.15,2186.602 444.552,2184.118 444.552,2179.528 L444.552,2165.38 C444.552,2162.518 444.39,2156.308 444.39,2155.93 C444.39,2154.796 444.714,2154.58 445.956,2154.58 L452.166,2154.58 C453.408,2154.58 453.732,2154.796 453.732,2155.93 C453.732,2156.308 453.57,2162.518 453.57,2165.38 Z M479.166,2164.732 L479.166,2183.578 C479.166,2186.44 479.328,2192.65 479.328,2193.028 C479.328,2194.162 479.004,2194.378 477.762,2194.378 L471.39,2194.378 C470.148,2194.378 469.824,2194.162 469.824,2193.028 C469.824,2192.65 469.986,2186.44 469.986,2183.578 L469.986,2164.732 C469.986,2163.382 469.716,2163.112 468.366,2163.112 L467.232,2163.112 C465.288,2163.112 460.32,2163.22 459.942,2163.22 C458.808,2163.22 458.592,2162.896 458.592,2161.654 L458.592,2156.038 C458.592,2154.796 458.808,2154.472 459.942,2154.472 C460.32,2154.472 465.774,2154.58 468.312,2154.58 L480.84,2154.58 C483.378,2154.58 488.832,2154.472 489.21,2154.472 C490.344,2154.472 490.56,2154.796 490.56,2156.038 L490.56,2161.654 C490.56,2162.896 490.344,2163.22 489.21,2163.22 C488.832,2163.22 483.864,2163.112 481.92,2163.112 L480.786,2163.112 C479.436,2163.112 479.166,2163.382 479.166,2164.732 Z" id="ABOUT"></path>
        </g>
    </g>
</svg>