<?xml version="1.0" encoding="UTF-8"?>
<svg width="256px" height="41px" viewBox="0 0 256 41" version="1.1" xmlns="http://www.w3.org/2000/svg" xmlns:xlink="http://www.w3.org/1999/xlink">
    <!-- Generator: Sketch 51.2 (57519) - http://www.bohemiancoding.com/sketch -->
    <title>CONTACT</title>
    <desc>Created with Sketch.</desc>
    <defs></defs>
    <g id="main" stroke="none" stroke-width="1" fill="none" fill-rule="evenodd">
        <g id="PC-top" transform="translate(-296.000000, -2867.000000)" fill="#4C2A13">
            <path d="M326.616,2903.544 C326.778,2903.976 326.886,2904.3 326.886,2904.57 C326.886,2905.056 326.508,2905.326 325.752,2905.704 C322.782,2907.054 319.002,2907.702 315.654,2907.702 C303.396,2907.702 296.268,2899.548 296.268,2888.586 C296.268,2876.49 303.504,2867.256 317.436,2867.256 C320.568,2867.256 323.646,2867.85 326.4,2868.984 C327.21,2869.362 327.588,2869.632 327.588,2870.118 C327.588,2870.388 327.48,2870.712 327.318,2871.144 L325.158,2877.084 C324.834,2877.894 324.672,2878.218 324.294,2878.218 C324.024,2878.218 323.7,2878.11 323.214,2877.84 C321.54,2876.976 319.488,2876.49 317.436,2876.49 C309.822,2876.49 305.772,2881.674 305.772,2888.37 C305.772,2894.202 309.444,2899.116 316.68,2899.116 C318.84,2899.116 321.054,2898.684 322.728,2897.82 C323.214,2897.55 323.538,2897.442 323.808,2897.442 C324.186,2897.442 324.402,2897.766 324.726,2898.576 L326.616,2903.544 Z M349.566,2867.256 C362.958,2867.256 369.006,2877.786 369.006,2887.128 C369.006,2900.304 359.664,2907.702 348.648,2907.702 C335.418,2907.702 329.262,2897.064 329.262,2887.668 C329.262,2874.816 338.118,2867.256 349.566,2867.256 Z M349.242,2876.328 C342.924,2876.328 338.658,2880.918 338.658,2887.722 C338.658,2893.23 341.574,2899.116 349.026,2899.116 C355.02,2899.116 359.61,2894.796 359.61,2887.722 C359.61,2882.376 356.64,2876.328 349.242,2876.328 Z M383.64,2886.372 L383.64,2896.578 C383.64,2899.44 383.802,2905.65 383.802,2906.028 C383.802,2907.162 383.478,2907.378 382.236,2907.378 L376.242,2907.378 C375,2907.378 374.676,2907.162 374.676,2906.028 C374.676,2905.65 374.838,2899.44 374.838,2896.578 L374.838,2878.38 C374.838,2875.518 374.676,2869.308 374.676,2868.93 C374.676,2867.796 375,2867.58 376.242,2867.58 L379.806,2867.58 C381.156,2867.58 381.588,2867.796 382.452,2868.822 C384.45,2871.252 386.34,2873.412 388.284,2875.626 L399.516,2888.424 C399.786,2888.748 400.056,2888.91 400.218,2888.91 C400.434,2888.91 400.596,2888.64 400.596,2888.046 L400.596,2878.38 C400.596,2875.518 400.434,2869.308 400.434,2868.93 C400.434,2867.796 400.758,2867.58 402,2867.58 L407.994,2867.58 C409.236,2867.58 409.56,2867.796 409.56,2868.93 C409.56,2869.308 409.398,2875.518 409.398,2878.38 L409.398,2896.578 C409.398,2899.44 409.56,2905.65 409.56,2906.028 C409.56,2907.162 409.236,2907.378 407.994,2907.378 L405.294,2907.378 C403.944,2907.378 403.512,2907.162 402.648,2906.136 C400.704,2903.868 398.922,2901.87 396.708,2899.386 L384.72,2885.94 C384.45,2885.616 384.234,2885.508 384.072,2885.508 C383.802,2885.508 383.64,2885.778 383.64,2886.372 Z M435.588,2877.732 L435.588,2896.578 C435.588,2899.44 435.75,2905.65 435.75,2906.028 C435.75,2907.162 435.426,2907.378 434.184,2907.378 L427.812,2907.378 C426.57,2907.378 426.246,2907.162 426.246,2906.028 C426.246,2905.65 426.408,2899.44 426.408,2896.578 L426.408,2877.732 C426.408,2876.382 426.138,2876.112 424.788,2876.112 L423.654,2876.112 C421.71,2876.112 416.742,2876.22 416.364,2876.22 C415.23,2876.22 415.014,2875.896 415.014,2874.654 L415.014,2869.038 C415.014,2867.796 415.23,2867.472 416.364,2867.472 C416.742,2867.472 422.196,2867.58 424.734,2867.58 L437.262,2867.58 C439.8,2867.58 445.254,2867.472 445.632,2867.472 C446.766,2867.472 446.982,2867.796 446.982,2869.038 L446.982,2874.654 C446.982,2875.896 446.766,2876.22 445.632,2876.22 C445.254,2876.22 440.286,2876.112 438.342,2876.112 L437.208,2876.112 C435.858,2876.112 435.588,2876.382 435.588,2877.732 Z M471.39,2900.25 L457.998,2900.25 C457.134,2900.25 456.756,2900.52 456.432,2901.384 C456.054,2902.41 455.622,2903.436 454.812,2905.866 C454.326,2907.162 454.056,2907.378 452.652,2907.378 L445.848,2907.378 C444.984,2907.378 444.606,2907.27 444.606,2906.838 C444.606,2906.622 444.714,2906.352 444.93,2905.92 C446.928,2901.438 448.008,2899.008 448.926,2896.848 L456.864,2878.218 C457.89,2875.734 459.186,2872.764 460.59,2869.092 C461.13,2867.796 461.4,2867.58 462.804,2867.58 L467.07,2867.58 C468.474,2867.58 468.744,2867.796 469.284,2869.092 C470.688,2872.764 471.984,2875.842 472.956,2878.056 L480.894,2896.632 C481.92,2899.008 483,2901.438 484.998,2905.92 C485.214,2906.352 485.322,2906.622 485.322,2906.838 C485.322,2907.27 484.944,2907.378 484.08,2907.378 L476.736,2907.378 C475.332,2907.378 475.062,2907.162 474.576,2905.866 C473.766,2903.436 473.334,2902.41 472.956,2901.384 C472.632,2900.466 472.362,2900.25 471.39,2900.25 Z M464.1,2882.214 L460.428,2891.394 C460.266,2891.772 460.212,2892.096 460.212,2892.312 C460.212,2892.798 460.59,2892.906 461.454,2892.906 L467.934,2892.906 C468.798,2892.906 469.176,2892.798 469.176,2892.312 C469.176,2892.096 469.122,2891.772 468.96,2891.394 L465.288,2882.214 C465.126,2881.782 464.91,2881.566 464.694,2881.566 C464.478,2881.566 464.262,2881.782 464.1,2882.214 Z M516.642,2903.544 C516.804,2903.976 516.912,2904.3 516.912,2904.57 C516.912,2905.056 516.534,2905.326 515.778,2905.704 C512.808,2907.054 509.028,2907.702 505.68,2907.702 C493.422,2907.702 486.294,2899.548 486.294,2888.586 C486.294,2876.49 493.53,2867.256 507.462,2867.256 C510.594,2867.256 513.672,2867.85 516.426,2868.984 C517.236,2869.362 517.614,2869.632 517.614,2870.118 C517.614,2870.388 517.506,2870.712 517.344,2871.144 L515.184,2877.084 C514.86,2877.894 514.698,2878.218 514.32,2878.218 C514.05,2878.218 513.726,2878.11 513.24,2877.84 C511.566,2876.976 509.514,2876.49 507.462,2876.49 C499.848,2876.49 495.798,2881.674 495.798,2888.37 C495.798,2894.202 499.47,2899.116 506.706,2899.116 C508.866,2899.116 511.08,2898.684 512.754,2897.82 C513.24,2897.55 513.564,2897.442 513.834,2897.442 C514.212,2897.442 514.428,2897.766 514.752,2898.576 L516.642,2903.544 Z M540.456,2877.732 L540.456,2896.578 C540.456,2899.44 540.618,2905.65 540.618,2906.028 C540.618,2907.162 540.294,2907.378 539.052,2907.378 L532.68,2907.378 C531.438,2907.378 531.114,2907.162 531.114,2906.028 C531.114,2905.65 531.276,2899.44 531.276,2896.578 L531.276,2877.732 C531.276,2876.382 531.006,2876.112 529.656,2876.112 L528.522,2876.112 C526.578,2876.112 521.61,2876.22 521.232,2876.22 C520.098,2876.22 519.882,2875.896 519.882,2874.654 L519.882,2869.038 C519.882,2867.796 520.098,2867.472 521.232,2867.472 C521.61,2867.472 527.064,2867.58 529.602,2867.58 L542.13,2867.58 C544.668,2867.58 550.122,2867.472 550.5,2867.472 C551.634,2867.472 551.85,2867.796 551.85,2869.038 L551.85,2874.654 C551.85,2875.896 551.634,2876.22 550.5,2876.22 C550.122,2876.22 545.154,2876.112 543.21,2876.112 L542.076,2876.112 C540.726,2876.112 540.456,2876.382 540.456,2877.732 Z" id="CONTACT"></path>
        </g>
    </g>
</svg>