<?xml version="1.0" encoding="UTF-8"?>
<svg width="160px" height="41px" viewBox="0 0 160 41" version="1.1" xmlns="http://www.w3.org/2000/svg" xmlns:xlink="http://www.w3.org/1999/xlink">
    <!-- Generator: Sketch 51.2 (57519) - http://www.bohemiancoding.com/sketch -->
    <title>NEWS</title>
    <desc>Created with Sketch.</desc>
    <defs></defs>
    <g id="main" stroke="none" stroke-width="1" fill="none" fill-rule="evenodd">
        <g id="PC-top" transform="translate(-298.000000, -879.000000)" fill="#4C2A13">
            <path d="M307.26,898.372 L307.26,908.578 C307.26,911.44 307.422,917.65 307.422,918.028 C307.422,919.162 307.098,919.378 305.856,919.378 L299.862,919.378 C298.62,919.378 298.296,919.162 298.296,918.028 C298.296,917.65 298.458,911.44 298.458,908.578 L298.458,890.38 C298.458,887.518 298.296,881.308 298.296,880.93 C298.296,879.796 298.62,879.58 299.862,879.58 L303.426,879.58 C304.776,879.58 305.208,879.796 306.072,880.822 C308.07,883.252 309.96,885.412 311.904,887.626 L323.136,900.424 C323.406,900.748 323.676,900.91 323.838,900.91 C324.054,900.91 324.216,900.64 324.216,900.046 L324.216,890.38 C324.216,887.518 324.054,881.308 324.054,880.93 C324.054,879.796 324.378,879.58 325.62,879.58 L331.614,879.58 C332.856,879.58 333.18,879.796 333.18,880.93 C333.18,881.308 333.018,887.518 333.018,890.38 L333.018,908.578 C333.018,911.44 333.18,917.65 333.18,918.028 C333.18,919.162 332.856,919.378 331.614,919.378 L328.914,919.378 C327.564,919.378 327.132,919.162 326.268,918.136 C324.324,915.868 322.542,913.87 320.328,911.386 L308.34,897.94 C308.07,897.616 307.854,897.508 307.692,897.508 C307.422,897.508 307.26,897.778 307.26,898.372 Z M351,911.116 L354.834,911.116 C357.372,911.116 362.826,911.008 363.204,911.008 C364.338,911.008 364.554,911.332 364.554,912.574 L364.554,917.92 C364.554,919.162 364.338,919.486 363.204,919.486 C362.826,919.486 357.372,919.378 354.834,919.378 L349.326,919.378 C346.842,919.378 342.09,919.486 341.712,919.486 C340.578,919.486 340.2,919.108 340.2,917.974 C340.2,917.596 340.362,911.602 340.362,908.74 L340.362,890.218 C340.362,887.356 340.2,881.362 340.2,880.984 C340.2,879.85 340.578,879.472 341.712,879.472 C342.09,879.472 346.842,879.58 349.326,879.58 L353.646,879.58 C356.184,879.58 361.638,879.472 362.016,879.472 C363.15,879.472 363.366,879.796 363.366,881.038 L363.366,886.6 C363.366,887.842 363.15,888.166 362.016,888.166 C361.638,888.166 356.184,888.058 353.646,888.058 L351,888.058 C349.65,888.058 349.38,888.328 349.38,889.678 L349.38,892.972 C349.38,894.214 349.596,894.43 350.838,894.43 L352.404,894.43 C354.942,894.43 360.396,894.322 360.774,894.322 C361.908,894.322 362.124,894.646 362.124,895.888 L362.124,901.018 C362.124,902.26 361.908,902.584 360.774,902.584 C360.396,902.584 354.942,902.476 352.404,902.476 L350.838,902.476 C349.596,902.476 349.38,902.692 349.38,903.934 L349.38,909.496 C349.38,910.846 349.65,911.116 351,911.116 Z M396.954,897.562 L392.094,909.334 C390.96,912.142 390.042,914.41 388.746,917.866 C388.26,919.162 387.99,919.378 386.586,919.378 L383.616,919.378 C382.212,919.378 381.942,919.162 381.51,917.812 C380.376,914.356 379.62,912.196 378.648,909.28 L371.898,889.84 C371.034,887.356 370.224,885.196 368.712,881.092 C368.55,880.66 368.496,880.39 368.496,880.174 C368.496,879.688 368.874,879.58 369.738,879.58 L376.974,879.58 C378.378,879.58 378.648,879.796 379.026,881.146 C380.106,884.872 380.7,886.816 381.402,889.084 L385.344,901.558 C385.56,902.152 385.722,902.422 385.884,902.422 C386.046,902.422 386.208,902.152 386.424,901.612 L391.284,889.624 C392.31,887.086 393.12,884.98 394.578,881.092 C395.064,879.796 395.334,879.58 396.738,879.58 L398.898,879.58 C400.302,879.58 400.572,879.796 401.058,881.092 C402.462,884.926 403.326,887.14 404.352,889.678 L409.104,901.504 C409.32,902.044 409.482,902.314 409.644,902.314 C409.806,902.314 409.968,902.044 410.184,901.45 L414.126,889.084 C414.828,886.816 415.422,884.872 416.502,881.146 C416.88,879.796 417.15,879.58 418.554,879.58 L425.304,879.58 C426.168,879.58 426.546,879.688 426.546,880.174 C426.546,880.39 426.492,880.66 426.33,881.092 C424.818,885.196 424.008,887.356 423.144,889.84 L416.394,909.28 C415.422,912.142 414.612,914.464 413.532,917.812 C413.1,919.162 412.83,919.378 411.426,919.378 L408.402,919.378 C406.998,919.378 406.728,919.162 406.242,917.866 C404.946,914.41 404.028,912.088 402.948,909.388 L398.142,897.562 C397.926,896.968 397.764,896.698 397.548,896.698 C397.386,896.698 397.17,896.968 396.954,897.562 Z M444.582,895.348 C450.36,897.616 457.056,900.424 457.056,907.552 C457.056,915.22 451.548,919.756 441.936,919.756 C437.346,919.756 432.594,918.514 429.354,916.786 C428.598,916.354 428.274,916.084 428.274,915.598 C428.274,915.328 428.382,915.004 428.598,914.518 L431.028,909.28 C431.352,908.578 431.568,908.2 431.892,908.2 C432.162,908.2 432.486,908.416 432.972,908.74 C435.726,910.738 439.506,911.764 442.53,911.764 C445.77,911.764 447.768,910.522 447.768,908.47 C447.768,906.094 444.474,904.69 440.046,903.016 C434.97,901.072 429.084,898.102 429.084,891.136 C429.084,883.522 435.078,879.202 444.312,879.202 C448.2,879.202 452.25,880.174 455.058,881.524 C455.814,881.902 456.192,882.172 456.192,882.658 C456.192,882.928 456.084,883.252 455.922,883.684 L453.708,889.408 C453.384,890.164 453.168,890.542 452.79,890.542 C452.52,890.542 452.25,890.38 451.764,890.056 C449.442,888.652 446.202,887.734 443.448,887.734 C439.722,887.734 438.372,889.138 438.372,890.758 C438.372,892.756 441.234,894.052 444.582,895.348 Z" id="NEWS"></path>
        </g>
    </g>
</svg>