<?xml version="1.0" encoding="UTF-8"?>
<svg width="245px" height="34px" viewBox="0 0 245 34" version="1.1" xmlns="http://www.w3.org/2000/svg" xmlns:xlink="http://www.w3.org/1999/xlink">
    <!-- Generator: Sketch 52.1 (67048) - http://www.bohemiancoding.com/sketch -->
    <title>これまでの記事</title>
    <desc>Created with Sketch.</desc>
    <g id="main" stroke="none" stroke-width="1" fill="none" fill-rule="evenodd">
        <g id="PC-top" transform="translate(-213.000000, -1560.000000)" fill="#4C2A13">
            <path d="M217.36,1570.3 C217.36,1569.94 217.792,1567.492 217.936,1566.7 C218.008,1566.268 218.188,1565.728 218.944,1565.728 C219.34,1565.728 219.88,1565.872 220.276,1565.98 C222.184,1566.412 224.2,1566.664 226.216,1566.664 C228.376,1566.664 230.536,1566.376 232.66,1565.908 C232.84,1565.872 233.056,1565.836 233.236,1565.836 C234.064,1565.836 234.244,1566.736 234.316,1567.996 C234.352,1568.608 234.424,1569.904 234.424,1570.516 C234.424,1571.344 234.172,1571.416 233.308,1571.56 C231.148,1571.956 228.952,1572.064 226.792,1572.064 C225.1,1572.064 218.944,1571.884 217.72,1571.056 C217.468,1570.876 217.36,1570.624 217.36,1570.3 Z M213.652,1581.748 C213.652,1581.244 214.156,1580.956 215.056,1580.56 C215.596,1580.308 218.044,1579.264 218.476,1579.264 C218.944,1579.264 219.052,1579.624 219.124,1580.164 C219.232,1580.92 219.484,1581.928 220.06,1582.504 C221.428,1583.908 223.696,1583.98 225.568,1583.98 C228.808,1583.98 232.84,1583.656 235.936,1582.72 C236.188,1582.648 236.512,1582.576 236.764,1582.576 C237.448,1582.576 237.592,1583.332 237.664,1584.52 C237.7,1585.132 237.808,1586.968 237.808,1587.436 C237.808,1588.084 237.412,1588.3 236.548,1588.516 C233.884,1589.164 228.484,1589.524 225.712,1589.524 C221.86,1589.524 217.684,1589.056 215.272,1585.708 C214.624,1584.808 213.652,1582.828 213.652,1581.748 Z M255.448,1561.696 C256.204,1561.696 259.696,1562.02 260.488,1562.164 C260.884,1562.236 261.028,1562.38 261.028,1562.632 C261.028,1562.884 260.848,1563.028 260.668,1563.172 C260.2,1563.532 260.2,1563.676 260.092,1564.792 C260.056,1565.044 259.804,1567.348 259.804,1567.672 C259.804,1568.104 259.948,1568.284 260.236,1568.572 C260.632,1568.932 261.352,1569.868 261.352,1570.408 C261.352,1570.588 261.28,1570.732 261.28,1570.876 C261.28,1571.092 261.424,1571.128 261.46,1571.128 C261.64,1571.128 262,1570.732 262.288,1570.444 C263.836,1568.968 265.708,1567.492 267.94,1567.492 C269.344,1567.492 270.964,1568.104 271.792,1569.292 C272.62,1570.444 272.62,1572.064 272.62,1573.432 C272.62,1575.376 272.548,1577.32 272.476,1579.228 C272.44,1580.416 272.332,1581.604 272.332,1582.756 C272.332,1583.332 272.332,1584.088 272.908,1584.088 C273.412,1584.088 274.852,1582.504 275.248,1582.072 C275.464,1581.82 275.716,1581.568 276.076,1581.568 C276.544,1581.568 277.12,1582.72 277.3,1583.08 C277.624,1583.728 278.488,1585.456 278.488,1586.068 C278.488,1586.464 278.092,1586.824 277.3,1587.472 C275.5,1588.948 273.232,1590.46 270.82,1590.46 C269.56,1590.46 268.444,1589.704 267.832,1588.66 C266.932,1587.112 266.896,1585.204 266.896,1583.476 C266.896,1579.984 267.364,1576.348 267.364,1574.44 C267.364,1573.972 267.22,1573.432 266.644,1573.432 C265.276,1573.432 261.172,1577.464 260.128,1578.544 C259.48,1579.192 259.444,1579.552 259.444,1580.416 C259.444,1583.368 259.516,1587.904 259.84,1590.784 C259.876,1590.964 259.876,1591.144 259.876,1591.288 C259.876,1591.648 259.588,1591.72 259.228,1591.756 C258.04,1591.864 257.212,1591.9 256.024,1591.9 C254.512,1591.9 254.008,1591.864 254.008,1591.18 C254.008,1591.108 254.224,1588.624 254.224,1587.436 C254.224,1587.184 254.188,1586.86 253.9,1586.86 C253.576,1586.86 252.964,1588.12 252.604,1588.84 C252.532,1589.02 252.46,1589.164 252.424,1589.236 C252.316,1589.452 252.136,1589.776 251.848,1589.776 C251.092,1589.776 248.068,1587.256 248.068,1586.5 C248.068,1586.212 248.608,1585.456 248.824,1585.168 C250.66,1582.432 252.532,1579.336 254.224,1576.492 C254.44,1576.132 254.512,1575.844 254.512,1575.556 C254.512,1575.196 254.44,1574.872 254.044,1574.872 C253.72,1574.872 253.324,1575.052 252.532,1575.412 C251.704,1575.772 250.336,1576.276 249.832,1576.276 C249.076,1576.276 248.68,1575.556 248.428,1574.908 C248.176,1574.296 247.348,1571.992 247.348,1571.452 C247.348,1570.876 247.816,1570.66 248.86,1570.624 C249.904,1570.48 253.792,1569.76 254.404,1569.112 C254.656,1568.86 254.692,1568.356 254.692,1567.96 L254.692,1567.672 C254.728,1566.232 254.764,1564.792 254.764,1563.352 C254.764,1562.992 254.728,1562.668 254.728,1562.308 C254.728,1561.804 255.016,1561.696 255.448,1561.696 Z M296.128,1562.2 C296.812,1562.2 300.448,1562.668 301.348,1562.812 C301.528,1562.848 301.852,1562.884 301.852,1563.172 C301.852,1563.352 301.744,1563.568 301.6,1563.784 C301.132,1564.504 301.024,1565.224 301.024,1566.052 C301.024,1566.52 301.348,1566.88 301.816,1566.88 C302.464,1566.88 305.956,1566.088 306.892,1565.872 C307.468,1565.728 308.08,1565.584 308.368,1565.584 C308.872,1565.584 309.052,1566.304 309.124,1566.7 C309.304,1567.6 309.52,1568.86 309.52,1569.76 C309.52,1570.624 309.088,1570.768 307.936,1570.984 C306.136,1571.308 304.264,1571.596 302.428,1571.848 C301.564,1571.956 301.168,1572.064 301.168,1572.82 C301.168,1573.324 301.42,1573.72 301.96,1573.72 C302.464,1573.72 305.164,1573.144 305.776,1572.964 C306.064,1572.892 306.424,1572.82 306.676,1572.82 C306.964,1572.82 307.144,1573.108 307.288,1573.576 C307.54,1574.332 307.54,1576.06 307.54,1577.032 C307.54,1578.184 306.424,1578.328 303.112,1578.688 C301.672,1578.832 301.384,1579.012 301.384,1579.66 C301.384,1581.64 301.42,1581.928 302.536,1582.288 C304.048,1582.792 308.872,1584.844 308.872,1586.536 C308.872,1587.328 307.36,1590.028 306.208,1590.028 C305.704,1590.028 304.768,1589.308 303.508,1588.372 C303.184,1588.12 302.356,1587.508 301.924,1587.508 C301.42,1587.508 301.276,1587.904 301.096,1588.3 C299.944,1591.108 297.064,1591.9 294.256,1591.9 C292.888,1591.9 291.124,1591.648 289.864,1590.784 C288.424,1589.812 287.596,1588.192 287.596,1586.536 C287.596,1584.988 288.388,1583.476 289.648,1582.576 C291.196,1581.46 293.356,1581.1 295.228,1581.1 L295.624,1581.1 C296.128,1581.1 296.38,1580.776 296.38,1580.308 C296.38,1579.588 295.912,1579.336 295.552,1579.336 C294.904,1579.336 292.672,1579.516 291.088,1579.516 C289.72,1579.516 289.36,1579.48 289.144,1578.508 C288.928,1577.608 288.64,1576.42 288.64,1575.16 C288.64,1574.62 288.712,1574.116 289.36,1574.116 C290.404,1574.116 291.952,1574.296 293.68,1574.296 L294.652,1574.296 C295.552,1574.296 296.236,1574.224 296.236,1573.432 C296.236,1572.928 295.948,1572.532 295.372,1572.532 C294.148,1572.532 291.952,1572.676 290.26,1572.676 L289.18,1572.676 C287.74,1572.676 286.588,1572.64 286.372,1572.136 C286.012,1571.236 285.976,1569.4 285.976,1568.356 C285.976,1567.852 286.012,1567.24 286.696,1567.24 C287.38,1567.24 291.16,1567.564 293.536,1567.564 L294.328,1567.564 C295.192,1567.564 295.84,1567.492 295.84,1566.736 C295.84,1566.412 295.66,1564.396 295.552,1563.748 C295.48,1563.424 295.444,1563.064 295.444,1562.74 C295.444,1562.308 295.696,1562.2 296.128,1562.2 Z M295.3,1585.492 C294.58,1585.492 292.312,1585.564 292.312,1586.608 C292.312,1587.472 293.644,1587.508 294.256,1587.508 C295.228,1587.508 296.416,1587.256 296.416,1586.032 C296.416,1585.528 295.984,1585.492 295.3,1585.492 Z M342.46,1573.684 C342.64,1573.684 342.856,1573.936 343,1574.116 C343.468,1574.656 345.448,1577.104 345.448,1577.644 C345.448,1578.364 343.504,1579.48 343.144,1579.48 C342.964,1579.48 342.892,1579.372 342.424,1578.652 C341.74,1577.608 341.02,1576.672 340.228,1575.664 C340.084,1575.484 340.048,1575.376 340.048,1575.268 C340.048,1574.764 342.064,1573.684 342.46,1573.684 Z M347.14,1571.56 C347.536,1571.56 350.164,1574.98 350.164,1575.448 C350.164,1576.168 348.256,1577.32 347.86,1577.32 C347.608,1577.32 347.428,1576.996 347.32,1576.816 C346.636,1575.7 345.844,1574.692 345.016,1573.684 C344.908,1573.54 344.728,1573.324 344.728,1573.144 C344.728,1572.676 346.708,1571.56 347.14,1571.56 Z M319.42,1570.768 C319.24,1569.544 319.096,1568.86 319.096,1568.14 C319.096,1567.024 319.492,1566.988 323.452,1566.772 C324.172,1566.736 325,1566.7 326.008,1566.628 C330.544,1566.34 340.984,1565.152 345.376,1564.324 C345.52,1564.288 345.628,1564.288 345.736,1564.288 C346.384,1564.288 346.492,1564.792 346.636,1565.476 C346.852,1566.412 347.104,1568.536 347.104,1569.472 C347.104,1570.156 346.708,1570.156 345.16,1570.192 C343.252,1570.228 341.848,1570.192 340.012,1570.84 C335.584,1572.424 332.56,1576.6 332.56,1581.352 C332.56,1584.772 334.36,1585.708 337.528,1585.708 C338.428,1585.708 339.616,1585.6 340.12,1585.6 C340.804,1585.6 341.056,1585.708 341.056,1586.392 C341.056,1587.436 340.804,1589.668 340.444,1590.604 C340.156,1591.324 339.652,1591.432 338.896,1591.432 C332.236,1591.432 326.656,1589.704 326.656,1581.928 C326.656,1578.328 327.736,1575.664 329.752,1572.748 C329.86,1572.568 329.968,1572.424 329.968,1572.208 C329.968,1571.884 329.716,1571.668 329.32,1571.668 C328.852,1571.668 327.88,1571.884 327.376,1571.992 C325.468,1572.352 322.984,1572.892 321.112,1573.432 C320.968,1573.468 320.752,1573.504 320.608,1573.504 C319.852,1573.504 319.6,1571.884 319.42,1570.768 Z M370.648,1564.648 C374.32,1564.648 377.776,1565.728 380.368,1568.32 C382.924,1570.876 384.184,1574.008 384.184,1577.572 C384.184,1582.648 381.412,1587.112 376.948,1589.524 C376.048,1590.028 373.672,1591.144 372.664,1591.144 C371.404,1591.144 369.496,1587.832 369.496,1586.824 C369.496,1586.5 369.82,1586.356 370.864,1586.104 C375.04,1585.024 378.46,1582.396 378.46,1577.788 C378.46,1572.136 374.14,1569.904 373.06,1569.904 C372.448,1569.904 372.376,1570.552 372.34,1571.2 C371.944,1576.204 370.504,1582.324 367.192,1586.284 C365.86,1587.904 364.132,1589.272 361.972,1589.272 C359.56,1589.272 357.58,1587.616 356.5,1585.564 C355.672,1583.98 355.312,1581.928 355.312,1580.164 C355.312,1571.524 361.972,1564.648 370.648,1564.648 Z M366.4,1570.696 C365.356,1570.696 360.676,1574.008 360.676,1580.092 C360.676,1580.956 360.892,1583.584 362.152,1583.584 C363.016,1583.584 364.24,1581.208 364.6,1580.452 C365.86,1577.86 366.868,1572.532 366.868,1571.236 C366.868,1570.948 366.724,1570.696 366.4,1570.696 Z M414.856,1572.208 L414.856,1568.464 C414.856,1567.852 414.388,1567.456 413.848,1567.456 L409.672,1567.456 C408.484,1567.456 407.296,1567.564 406.108,1567.564 C405.316,1567.564 405.208,1567.168 405.208,1566.088 L405.208,1563.676 C405.208,1562.596 405.28,1562.164 406.108,1562.164 C407.296,1562.164 408.484,1562.272 409.672,1562.272 L415.756,1562.272 C416.692,1562.272 417.592,1562.236 418.492,1562.236 C419.716,1562.236 420.112,1562.452 420.112,1563.712 C420.112,1564.864 420.04,1566.016 420.04,1567.132 L420.04,1572.424 C420.04,1574.224 420.148,1576.06 420.148,1577.896 C420.148,1578.76 419.824,1578.868 418.6,1578.868 L416.44,1578.868 C415.216,1578.868 415.108,1578.76 414.928,1578.4 C414.784,1578.004 414.388,1578.004 414.028,1578.004 L411.616,1578.004 C411.076,1578.004 410.608,1578.472 410.608,1579.012 L410.608,1585.6 C410.608,1587.112 410.608,1587.616 411.724,1587.616 L415.288,1587.616 C416.368,1587.616 416.8,1587.22 417.16,1584.124 C417.232,1583.368 417.196,1582.972 417.988,1582.972 C419.356,1582.972 422.128,1583.44 422.128,1585.24 C422.128,1586.644 421.408,1589.164 420.832,1590.46 C419.86,1592.62 418.816,1592.8 416.62,1592.8 L409.6,1592.8 C406.684,1592.8 405.568,1591.864 405.568,1588.912 C405.568,1587.868 405.604,1586.86 405.604,1585.816 L405.604,1576.96 C405.604,1576.168 405.568,1575.376 405.568,1574.584 C405.568,1573.36 406,1573.18 407.152,1573.18 C408.052,1573.18 408.988,1573.216 409.888,1573.216 L413.848,1573.216 C414.388,1573.216 414.856,1572.748 414.856,1572.208 Z M395.668,1576.636 L398.476,1576.636 C399.484,1576.636 400.492,1576.564 401.248,1576.564 C402.184,1576.564 402.256,1576.852 402.256,1577.716 L402.256,1579.3 C402.256,1580.236 402.184,1580.488 401.248,1580.488 C400.42,1580.488 399.484,1580.416 398.476,1580.416 L395.668,1580.416 C394.696,1580.416 393.76,1580.488 392.896,1580.488 C392.068,1580.488 391.888,1580.272 391.888,1579.48 L391.888,1577.716 C391.888,1576.816 392.032,1576.564 392.896,1576.564 C393.724,1576.564 394.66,1576.636 395.668,1576.636 Z M395.668,1571.704 L398.476,1571.704 C399.484,1571.704 400.492,1571.632 401.248,1571.632 C402.184,1571.632 402.256,1571.92 402.256,1572.784 L402.256,1574.368 C402.256,1575.304 402.184,1575.556 401.248,1575.556 C400.42,1575.556 399.484,1575.484 398.476,1575.484 L395.668,1575.484 C394.696,1575.484 393.76,1575.556 392.896,1575.556 C392.068,1575.556 391.888,1575.34 391.888,1574.548 L391.888,1572.82 C391.888,1571.884 392.032,1571.632 392.896,1571.632 C393.724,1571.632 394.66,1571.704 395.668,1571.704 Z M394.156,1566.772 L399.592,1566.772 C400.672,1566.772 401.788,1566.7 402.904,1566.7 C403.804,1566.7 403.876,1566.988 403.876,1567.996 L403.876,1569.256 C403.876,1570.516 403.768,1570.66 402.868,1570.66 C401.788,1570.66 400.672,1570.588 399.592,1570.588 L394.156,1570.588 C393.076,1570.588 391.96,1570.66 390.88,1570.66 C390.304,1570.66 389.872,1570.624 389.872,1569.652 L389.872,1567.996 C389.872,1566.988 389.944,1566.7 390.808,1566.7 C391.924,1566.7 393.04,1566.772 394.156,1566.772 Z M395.74,1561.804 L398.548,1561.804 C399.628,1561.804 400.6,1561.732 401.32,1561.732 C402.256,1561.732 402.328,1562.02 402.328,1562.956 L402.328,1564.648 C402.328,1565.656 402.256,1565.944 401.32,1565.944 C400.6,1565.944 399.664,1565.872 398.548,1565.872 L395.74,1565.872 C394.624,1565.872 393.724,1565.944 393.004,1565.944 C392.14,1565.944 391.96,1565.692 391.96,1564.864 L391.96,1562.848 C391.96,1561.984 392.104,1561.732 393.004,1561.732 C393.76,1561.732 394.66,1561.804 395.74,1561.804 Z M396.316,1586.068 L396.316,1587.04 C396.316,1587.544 396.676,1587.904 397.18,1587.904 L397.324,1587.904 C397.828,1587.904 398.188,1587.508 398.188,1587.04 L398.188,1586.068 C398.188,1585.6 397.828,1585.204 397.324,1585.204 L397.18,1585.204 C396.712,1585.204 396.316,1585.6 396.316,1586.068 Z M397.72,1591.54 L396.784,1591.54 C396.568,1591.54 396.388,1591.72 396.388,1591.936 L396.388,1592.512 C396.388,1593.376 396.028,1593.448 394.912,1593.448 L392.788,1593.448 C391.708,1593.448 391.348,1593.376 391.348,1592.512 C391.348,1591.54 391.42,1590.352 391.42,1589.2 L391.42,1586.104 C391.42,1585.168 391.348,1584.232 391.348,1583.332 C391.348,1581.892 392.032,1581.388 393.4,1581.388 C394.264,1581.388 395.164,1581.46 396.028,1581.46 L398.08,1581.46 C398.944,1581.46 399.808,1581.424 400.672,1581.424 C402.076,1581.424 402.76,1581.892 402.76,1583.368 C402.76,1584.268 402.688,1585.168 402.688,1586.104 L402.688,1589.2 C402.688,1590.316 402.76,1591.504 402.76,1592.512 C402.76,1593.376 402.364,1593.448 401.284,1593.448 L399.664,1593.448 C398.476,1593.448 398.116,1593.376 398.116,1592.512 L398.116,1591.936 C398.116,1591.756 398.008,1591.54 397.72,1591.54 Z M447.724,1570.912 L445.024,1570.912 C444.7,1570.912 444.448,1571.164 444.448,1571.488 L444.448,1571.596 C444.448,1571.92 444.7,1572.172 445.024,1572.172 L447.724,1572.172 C448.048,1572.172 448.3,1571.92 448.3,1571.596 L448.3,1571.488 C448.3,1571.164 448.048,1570.912 447.724,1570.912 Z M438.364,1570.912 L435.628,1570.912 C435.304,1570.912 435.052,1571.164 435.052,1571.488 L435.052,1571.596 C435.052,1571.92 435.304,1572.172 435.628,1572.172 L438.364,1572.172 C438.688,1572.172 438.94,1571.92 438.94,1571.596 L438.94,1571.488 C438.94,1571.164 438.724,1570.948 438.364,1570.912 Z M448.624,1583.08 L444.916,1583.08 C444.664,1583.08 444.448,1583.296 444.448,1583.548 L444.448,1583.764 C444.448,1584.016 444.664,1584.232 444.916,1584.232 L448.624,1584.232 C448.912,1584.232 449.092,1584.016 449.092,1583.764 L449.092,1583.548 C449.092,1583.26 448.912,1583.08 448.624,1583.08 Z M444.448,1579.66 L444.448,1579.768 C444.448,1580.02 444.664,1580.236 444.916,1580.236 L448.624,1580.236 C448.912,1580.236 449.092,1580.02 449.092,1579.768 L449.092,1579.66 C449.092,1579.372 448.912,1579.192 448.624,1579.192 L444.916,1579.192 C444.664,1579.192 444.484,1579.372 444.448,1579.66 Z M444.448,1575.628 L444.448,1575.7 C444.484,1575.952 444.664,1576.168 444.916,1576.168 L449.2,1576.168 C450.424,1576.168 451.648,1576.132 452.872,1576.132 C453.736,1576.132 454.564,1576.24 454.564,1577.32 C454.564,1577.932 454.528,1578.544 454.528,1579.156 C454.528,1579.696 454.924,1580.2 455.5,1580.2 C455.968,1580.2 456.436,1580.164 456.868,1580.164 C457.624,1580.164 457.624,1580.524 457.624,1581.604 L457.624,1582.18 C457.624,1582.792 457.552,1583.116 456.904,1583.116 L455.464,1583.116 C455.14,1583.116 454.492,1583.332 454.492,1584.304 L454.492,1584.484 C454.492,1585.42 454.6,1586.752 454.6,1587.184 C454.6,1588.012 454.06,1588.048 453.376,1588.048 L450.964,1588.048 C449.488,1588.048 449.272,1588.048 449.02,1587.508 C448.876,1587.22 448.552,1587.184 448.264,1587.184 L445.672,1587.184 C444.808,1587.184 444.52,1587.724 444.52,1588.156 C444.52,1588.516 444.556,1589.128 444.556,1589.596 C444.556,1590.64 444.196,1591.684 443.368,1592.296 C441.892,1593.376 439.264,1593.484 437.5,1593.484 C436.204,1593.484 435.556,1593.376 435.196,1592.548 C434.872,1591.792 434.692,1590.424 434.692,1589.596 C434.692,1589.092 434.8,1588.66 435.412,1588.66 C435.628,1588.66 436.024,1588.696 436.24,1588.732 C436.708,1588.804 437.248,1588.84 437.68,1588.84 C438.652,1588.84 438.94,1588.696 438.94,1587.796 C438.94,1587.364 438.616,1587.184 438.22,1587.184 L433.792,1587.184 C431.704,1587.184 430.408,1587.256 429.58,1587.256 C428.248,1587.256 428.248,1587.184 428.248,1585.78 L428.248,1585.168 C428.248,1584.34 428.32,1584.16 429.184,1584.16 C430.732,1584.16 432.28,1584.232 433.792,1584.232 L438.508,1584.232 C438.76,1584.232 438.94,1584.016 438.94,1583.764 L438.94,1583.548 C438.94,1583.296 438.76,1583.08 438.508,1583.08 L431.308,1583.08 C429.652,1583.08 427.996,1583.116 426.34,1583.116 C425.656,1583.116 425.584,1582.828 425.584,1582.144 L425.584,1581.568 C425.584,1580.38 425.62,1580.164 426.34,1580.164 C427.996,1580.164 429.652,1580.236 431.308,1580.236 L438.508,1580.236 C438.76,1580.236 438.94,1580.02 438.94,1579.768 L438.94,1579.66 C438.94,1579.372 438.76,1579.192 438.508,1579.192 L431.848,1579.192 C430.876,1579.192 429.904,1579.228 428.932,1579.228 C428.392,1579.228 428.32,1579.012 428.32,1578.364 L428.32,1577.104 C428.32,1576.384 428.356,1576.096 428.932,1576.096 C429.904,1576.096 430.876,1576.168 431.848,1576.168 L438.508,1576.168 C438.76,1576.168 438.94,1575.952 438.94,1575.7 L438.94,1575.628 C438.94,1575.34 438.76,1575.16 438.508,1575.16 L436.348,1575.16 C435.016,1575.16 433.648,1575.232 432.28,1575.232 C431.452,1575.232 429.94,1575.232 429.94,1574.08 C429.94,1573.864 429.976,1573.612 429.976,1573.432 C430.012,1573 430.048,1572.64 430.048,1572.244 L430.048,1570.84 C430.048,1570.444 430.012,1570.084 429.976,1569.652 C429.976,1569.472 429.94,1569.22 429.94,1569.004 C429.94,1567.852 431.452,1567.852 432.28,1567.852 C433.648,1567.852 435.016,1567.924 436.348,1567.924 L438.508,1567.924 C438.76,1567.924 438.94,1567.708 438.94,1567.456 L438.94,1567.348 C438.94,1567.096 438.76,1566.88 438.508,1566.88 L432.136,1566.88 C430.552,1566.88 429.004,1566.952 427.42,1566.952 C426.7,1566.952 426.556,1566.664 426.556,1565.944 L426.556,1564.72 C426.556,1563.82 426.592,1563.46 427.42,1563.46 C429.004,1563.46 430.552,1563.532 432.136,1563.532 L437.788,1563.532 C438.544,1563.532 438.904,1563.064 438.904,1562.524 C438.904,1562.344 438.796,1561.66 438.796,1561.444 C438.796,1560.976 439.192,1560.94 439.552,1560.94 C439.804,1560.94 440.236,1560.976 440.488,1560.976 C441.568,1561.048 443.8,1561.228 444.628,1561.372 C444.952,1561.444 445.168,1561.552 445.168,1561.876 C445.168,1562.092 445.024,1562.2 444.808,1562.416 C444.628,1562.56 444.52,1562.74 444.52,1562.956 C444.52,1563.172 444.664,1563.532 445.24,1563.532 L451.072,1563.532 C452.692,1563.532 454.276,1563.46 455.86,1563.46 C456.58,1563.46 456.652,1563.784 456.652,1564.54 L456.652,1565.836 C456.652,1566.628 456.58,1566.952 455.824,1566.952 C454.24,1566.952 452.656,1566.88 451.072,1566.88 L444.916,1566.88 C444.664,1566.88 444.448,1567.096 444.448,1567.348 L444.448,1567.456 C444.448,1567.708 444.664,1567.924 444.916,1567.924 L446.968,1567.924 C448.336,1567.924 449.704,1567.852 451.036,1567.852 C451.864,1567.852 453.376,1567.852 453.376,1569.004 C453.376,1569.22 453.376,1569.472 453.34,1569.652 C453.304,1570.084 453.304,1570.444 453.304,1570.84 L453.304,1572.244 C453.304,1572.64 453.304,1573 453.34,1573.432 C453.376,1573.612 453.376,1573.864 453.376,1574.08 C453.376,1575.232 451.864,1575.232 451.036,1575.232 C449.668,1575.232 448.336,1575.16 446.968,1575.16 L444.916,1575.16 C444.664,1575.16 444.448,1575.34 444.448,1575.628 Z" id="これまでの記事"></path>
        </g>
    </g>
</svg>