<?xml version="1.0" encoding="UTF-8"?>
<svg width="198px" height="19px" viewBox="0 0 198 19" version="1.1" xmlns="http://www.w3.org/2000/svg" xmlns:xlink="http://www.w3.org/1999/xlink">
    <!-- Generator: Sketch 51.2 (57519) - http://www.bohemiancoding.com/sketch -->
    <title>お問い合わせフォーム</title>
    <desc>Created with Sketch.</desc>
    <defs></defs>
    <g id="main" stroke="none" stroke-width="1" fill="none" fill-rule="evenodd">
        <g id="PC-top" transform="translate(-908.000000, -3038.000000)" fill="#4C2A13">
            <path d="M916.32,3051.28 C916.34,3051.68 916.48,3053.32 916.48,3053.56 C916.48,3054.66 914.84,3055.36 914.16,3055.36 C913.72,3055.36 913.58,3055.04 913.36,3054.58 C913.04,3053.92 912.14,3052.92 911.68,3052.92 C911.42,3052.92 911.18,3053.12 911,3053.28 C910.84,3053.42 910.6,3053.64 910.48,3053.64 C910.04,3053.64 908.86,3051.42 908.86,3050.96 C908.86,3050.72 909.04,3050.64 909.28,3050.52 C909.78,3050.26 913.02,3048.32 913.24,3048.06 C913.38,3047.88 913.4,3047.6 913.4,3047.34 L913.4,3046.56 C913.4,3046.28 913.22,3046.06 912.94,3046.06 C912.86,3046.06 912.38,3046.14 912.26,3046.16 C911.96,3046.22 911.42,3046.32 911.14,3046.32 C910.74,3046.32 910.34,3046.3 910.34,3044.22 C910.34,3043.46 910.34,3043.42 911.12,3043.38 C911.7,3043.36 912.28,3043.32 912.86,3043.26 C913.06,3043.24 913.28,3043.16 913.38,3042.98 C913.5,3042.78 913.52,3041.78 913.52,3041.18 L913.52,3040.84 C913.52,3040.42 913.48,3039.98 913.48,3039.86 C913.48,3039.66 913.58,3039.54 913.78,3039.54 C914.22,3039.54 916.18,3039.96 916.74,3040.06 C916.92,3040.1 917.12,3040.16 917.12,3040.32 C917.12,3040.42 917,3040.5 916.92,3040.54 C916.62,3040.78 916.56,3040.98 916.5,3041.26 C916.42,3041.7 916.38,3042 916.38,3042.06 C916.38,3042.28 916.56,3042.46 916.76,3042.46 C916.86,3042.46 917.28,3042.32 917.4,3042.28 C917.56,3042.22 917.82,3042.14 917.94,3042.14 C918.28,3042.14 918.46,3042.58 918.54,3043.36 C918.58,3043.66 918.64,3044.24 918.64,3044.54 C918.64,3045.04 918.42,3045.06 916.74,3045.34 C916.4,3045.4 916.14,3045.56 916.14,3045.98 C916.14,3046.26 916.22,3046.5 916.54,3046.5 C916.66,3046.5 916.88,3046.42 917,3046.38 C917.86,3046.1 918.78,3045.94 919.68,3045.94 C922.14,3045.94 924.46,3047.32 924.46,3050.02 C924.46,3051.3 923.86,3052.46 922.84,3053.22 C921.78,3054.02 919.82,3054.28 918.52,3054.28 C917.98,3054.28 917.56,3054.28 917.4,3053.98 C917.18,3053.56 917.06,3052.54 917.06,3052.1 C917.06,3051.74 917.1,3051.34 917.54,3051.34 C917.66,3051.34 918.1,3051.4 918.24,3051.42 C918.48,3051.44 918.86,3051.46 919.08,3051.46 C919.94,3051.46 921.4,3051.22 921.4,3050.12 C921.4,3049.14 920.44,3048.66 919.6,3048.66 C918.82,3048.66 917.12,3049.04 916.52,3049.5 C916.32,3049.66 916.26,3049.94 916.26,3050.18 C916.26,3050.42 916.3,3051.04 916.32,3051.28 Z M913.52,3052.38 L913.52,3052.04 C913.52,3051.8 913.5,3051.54 913.32,3051.54 C913.16,3051.54 912.98,3051.7 912.86,3051.8 C912.78,3051.86 912.7,3051.92 912.7,3052.04 C912.7,3052.2 912.76,3052.26 913.12,3052.5 C913.24,3052.58 913.32,3052.62 913.36,3052.62 C913.5,3052.62 913.52,3052.5 913.52,3052.38 Z M921.88,3042 C922.22,3042 923.5,3043.04 923.8,3043.28 C924.26,3043.66 924.98,3044.26 925.4,3044.68 C925.52,3044.78 925.66,3044.92 925.66,3045.08 C925.66,3045.6 924.46,3046.98 923.96,3046.98 C923.78,3046.98 923.64,3046.84 923.48,3046.7 C922.58,3045.88 921.64,3045.12 920.66,3044.4 C920.44,3044.24 920.22,3044.1 920.22,3043.88 C920.22,3043.6 920.78,3042.94 920.98,3042.74 C921.02,3042.7 921.06,3042.64 921.1,3042.6 C921.36,3042.32 921.64,3042 921.88,3042 Z M937.56,3053.4 L936.58,3053.4 C936.32,3053.4 936.12,3053.52 936.12,3053.8 L936.12,3053.94 C936.12,3054.4 935.94,3054.44 935.26,3054.44 L934.22,3054.44 C933.62,3054.44 933.38,3054.4 933.38,3054 C933.38,3053.58 933.44,3052.78 933.44,3052.14 L933.44,3049.42 C933.44,3048.96 933.4,3048.48 933.4,3048.02 C933.4,3047.26 934.02,3047.22 934.62,3047.22 C935.2,3047.22 935.8,3047.26 936.38,3047.26 L937.6,3047.26 C938.2,3047.26 938.78,3047.22 939.38,3047.22 C939.96,3047.22 940.58,3047.26 940.58,3048.02 C940.58,3048.46 940.54,3048.92 940.54,3049.42 L940.54,3052.14 C940.54,3053.48 940.56,3053.7 940.98,3053.7 L941.08,3053.7 C941.44,3053.7 941.78,3053.72 942.14,3053.72 C942.62,3053.72 942.64,3053.38 942.64,3052.88 L942.64,3046.22 C942.64,3045.92 942.4,3045.66 942.08,3045.66 L940.62,3045.66 C939.98,3045.66 939.34,3045.72 938.7,3045.72 C938.02,3045.72 937.6,3045.54 937.6,3044.6 C937.6,3043.9 937.64,3043.18 937.64,3042.46 L937.64,3042.06 C937.64,3041.34 937.6,3040.62 937.6,3039.92 C937.6,3039.12 937.88,3038.8 938.68,3038.8 C939.32,3038.8 939.98,3038.86 940.62,3038.86 L942.48,3038.86 C943.12,3038.86 943.76,3038.8 944.4,3038.8 C945.08,3038.8 945.5,3039 945.5,3039.92 C945.5,3040.62 945.46,3041.34 945.46,3042.06 L945.46,3051.7 C945.46,3052.34 945.5,3053 945.5,3053.66 C945.5,3054.54 945.38,3055.24 944.62,3055.78 C943.92,3056.28 942.8,3056.44 941.88,3056.44 C941.02,3056.44 940.72,3056.28 940.56,3054.84 C940.54,3054.6 940.4,3054.42 940.16,3054.42 C940.14,3054.42 939.94,3054.44 939.74,3054.44 L939.14,3054.44 C938.18,3054.44 937.98,3054.44 937.98,3053.98 C937.98,3053.9 938,3053.82 938,3053.8 C938,3053.54 937.82,3053.4 937.56,3053.4 Z M938.04,3050.56 L938.04,3050.12 C938.04,3049.82 937.78,3049.56 937.48,3049.56 L936.62,3049.56 C936.32,3049.56 936.06,3049.82 936.06,3050.12 L936.06,3050.56 C936.06,3050.86 936.32,3051.12 936.62,3051.12 L937.48,3051.12 C937.78,3051.12 938.02,3050.9 938.04,3050.56 Z M942.64,3041.16 L942.64,3041.1 C942.64,3040.96 942.54,3040.84 942.38,3040.84 L940.64,3040.84 C940.5,3040.84 940.38,3040.96 940.38,3041.1 L940.38,3041.16 C940.38,3041.3 940.5,3041.42 940.64,3041.42 L942.38,3041.42 C942.54,3041.42 942.64,3041.32 942.64,3041.16 Z M942.64,3043.42 L942.64,3043.36 C942.64,3043.2 942.54,3043.1 942.38,3043.1 L940.64,3043.1 C940.5,3043.1 940.38,3043.22 940.38,3043.36 L940.38,3043.42 C940.38,3043.56 940.5,3043.68 940.64,3043.68 L942.38,3043.68 C942.54,3043.68 942.64,3043.56 942.64,3043.42 Z M933.42,3045.66 L931.98,3045.66 C931.7,3045.66 931.42,3045.92 931.42,3046.22 L931.42,3052.82 C931.42,3053.84 931.48,3054.86 931.48,3055.9 C931.48,3056.4 931.28,3056.46 930.66,3056.46 L929.4,3056.46 C928.76,3056.46 928.56,3056.42 928.56,3055.9 C928.56,3054.86 928.6,3053.84 928.6,3052.82 L928.6,3042.06 C928.6,3041.34 928.56,3040.62 928.56,3039.92 C928.56,3039.14 928.86,3038.8 929.64,3038.8 C930.3,3038.8 930.94,3038.86 931.58,3038.86 L933.42,3038.86 C934.06,3038.86 934.7,3038.8 935.34,3038.8 C936.02,3038.8 936.44,3038.98 936.44,3039.92 C936.44,3040.62 936.4,3041.34 936.4,3042.06 L936.4,3042.46 C936.4,3043.18 936.44,3043.9 936.44,3044.6 C936.44,3045.4 936.16,3045.72 935.36,3045.72 C934.72,3045.72 934.08,3045.66 933.42,3045.66 Z M933.66,3041.16 L933.66,3041.1 C933.66,3040.96 933.54,3040.84 933.4,3040.84 L931.68,3040.84 C931.54,3040.84 931.42,3040.96 931.42,3041.1 L931.42,3041.16 C931.42,3041.3 931.54,3041.42 931.68,3041.42 L933.4,3041.42 C933.56,3041.42 933.66,3041.3 933.66,3041.16 Z M933.66,3043.42 L933.66,3043.32 C933.66,3043.18 933.56,3043.06 933.4,3043.06 L931.68,3043.06 C931.54,3043.06 931.42,3043.18 931.42,3043.32 L931.42,3043.42 C931.42,3043.56 931.54,3043.68 931.68,3043.68 L933.4,3043.68 C933.54,3043.68 933.66,3043.56 933.66,3043.42 Z M950.22,3041.72 C950.48,3041.72 952.82,3042.14 953.32,3042.24 C953.52,3042.28 953.74,3042.34 953.74,3042.52 C953.74,3042.6 953.68,3042.66 953.54,3042.76 C953.28,3042.96 953.22,3043.34 953.16,3043.64 C952.98,3044.56 952.9,3045.52 952.9,3046.44 C952.9,3047.7 953.08,3049.14 953.62,3050.28 C953.78,3050.62 954.14,3051.26 954.58,3051.26 C955.04,3051.26 955.5,3050.44 955.68,3050.12 C955.82,3049.88 956,3049.62 956.3,3049.62 C956.9,3049.62 958.38,3050.76 958.38,3051.24 C958.38,3051.72 957.46,3052.78 957.12,3053.16 C956.42,3053.94 955.72,3054.6 954.62,3054.6 C953.28,3054.6 952.14,3053.62 951.4,3052.58 C949.92,3050.5 949.78,3047.58 949.78,3045.12 C949.78,3044.74 949.86,3042.32 949.88,3042.04 C949.9,3041.82 950,3041.72 950.22,3041.72 Z M958.88,3043.44 C958.88,3042.98 960.04,3041.6 960.64,3041.6 C961.18,3041.6 962.76,3042.84 963.64,3044.26 C964.42,3045.52 964.9,3046.92 965.12,3048.36 C965.16,3048.68 965.22,3049.16 965.22,3049.4 C965.22,3049.82 965.12,3050 964.72,3050.12 C964.14,3050.3 963.42,3050.46 962.82,3050.46 C962.08,3050.46 962.06,3050.2 962,3049.44 C961.82,3047.04 960.98,3045.14 959.08,3043.78 C958.96,3043.68 958.88,3043.6 958.88,3043.44 Z M974.36,3052.8 L979.66,3052.8 C979.98,3052.8 980.22,3052.56 980.22,3052.24 L980.22,3051.26 C980.22,3050.94 979.98,3050.7 979.66,3050.7 L974.36,3050.7 C974.06,3050.7 973.8,3050.94 973.8,3051.26 L973.8,3052.24 C973.8,3052.56 974.04,3052.8 974.36,3052.8 Z M979.84,3055.28 L974.22,3055.28 C974.04,3055.28 973.86,3055.38 973.86,3055.58 L973.86,3055.74 C973.86,3056.36 973.7,3056.36 972.46,3056.36 L971.82,3056.36 C971.1,3056.36 970.82,3056.32 970.82,3055.8 C970.82,3055.52 970.88,3054.72 970.88,3054.02 L970.88,3050.7 C970.88,3050.16 970.84,3049.6 970.84,3049.06 C970.84,3048.06 971.62,3047.98 972.42,3047.98 C973.06,3047.98 973.7,3048.06 974.36,3048.06 L979.7,3048.06 C980.34,3048.06 981,3047.98 981.64,3047.98 C982.42,3047.98 983.22,3048.06 983.22,3049.04 C983.22,3049.52 983.18,3050.08 983.18,3050.7 L983.18,3054.02 C983.18,3054.76 983.24,3055.56 983.24,3055.78 C983.24,3056.32 982.96,3056.36 982.26,3056.36 L981.08,3056.36 C980.42,3056.36 980.16,3056.32 980.16,3055.8 C980.16,3055.72 980.18,3055.66 980.18,3055.6 C980.18,3055.44 980.06,3055.28 979.84,3055.28 Z M975.18,3044.38 L979.12,3044.38 C979.38,3044.38 979.6,3044.36 979.6,3044.16 C979.6,3043.96 979.46,3043.82 979.32,3043.7 C978.78,3043.2 977.94,3042.26 977.46,3041.68 C977.36,3041.56 977.22,3041.38 977.04,3041.38 C976.88,3041.38 976.76,3041.48 976.66,3041.62 C976.1,3042.3 975.34,3043.06 974.72,3043.68 C974.6,3043.78 974.42,3043.96 974.42,3044.14 C974.42,3044.36 974.48,3044.38 975.18,3044.38 Z M978.86,3047 L975.18,3047 C974.54,3047 973.82,3047.04 973.26,3047.04 C972.92,3047.04 972.82,3046.92 972.82,3046.2 L972.82,3046.04 C972.82,3045.9 972.78,3045.68 972.58,3045.68 C972.46,3045.68 972.34,3045.8 972.24,3045.86 C971.86,3046.16 970.24,3047.38 969.84,3047.38 C969.32,3047.38 968.02,3045.82 968.02,3045.28 C968.02,3045.04 968.28,3044.94 968.56,3044.8 C971.2,3043.44 974.12,3040.94 975.58,3038.34 C975.68,3038.16 975.74,3038.08 975.94,3038.08 C976.18,3038.08 978.64,3038.46 978.98,3038.54 C979.14,3038.58 979.3,3038.66 979.3,3038.86 C979.3,3038.94 979.26,3039 979.2,3039.06 C979.16,3039.12 979.08,3039.2 979.08,3039.3 C979.08,3039.44 979.52,3039.98 979.64,3040.12 C981.36,3042.24 983.38,3043.54 985.8,3044.68 C986.2,3044.86 986.24,3044.9 986.24,3045.08 C986.24,3045.54 985.82,3046.28 985.6,3046.7 C985.42,3047.04 985.16,3047.48 984.86,3047.48 C984.4,3047.48 982.16,3045.96 981.68,3045.62 C981.62,3045.58 981.54,3045.52 981.48,3045.52 C981.24,3045.52 981.22,3045.72 981.22,3046.02 L981.22,3046.42 C981.22,3046.88 981.12,3047.04 980.78,3047.04 C980.24,3047.04 979.68,3047 978.86,3047 Z M993.28,3038.82 C993.64,3038.82 995.7,3039 996.06,3039.08 C996.26,3039.12 996.38,3039.18 996.38,3039.34 C996.38,3039.46 996.34,3039.52 996.26,3039.58 C995.94,3039.84 995.94,3039.9 995.86,3040.7 C995.84,3040.9 995.8,3041.28 995.74,3041.7 C995.74,3041.78 995.72,3041.86 995.72,3041.94 C995.72,3042.22 995.84,3042.32 996.04,3042.5 C996.22,3042.68 996.72,3043.18 996.72,3043.46 C996.72,3043.62 996.42,3043.94 996.12,3044.28 C995.74,3044.72 995.58,3044.96 995.58,3045.06 C995.58,3045.12 995.62,3045.18 995.68,3045.18 C995.72,3045.18 996.02,3044.94 996.24,3044.74 C996.3,3044.68 996.36,3044.64 996.38,3044.62 C997.52,3043.64 998.86,3043 1000.38,3043 C1003.34,3043 1005.42,3045.38 1005.42,3048.26 C1005.42,3050.96 1003.82,3052.8 1001.52,3054.02 C1000.8,3054.4 999.36,3055.02 998.58,3055.02 C997.72,3055.02 997.14,3053.22 997.14,3052.72 C997.14,3052.26 997.48,3052.2 997.84,3052.12 C998.68,3051.92 999.68,3051.66 1000.42,3051.22 C1001.48,3050.58 1002.3,3049.68 1002.3,3048.38 C1002.3,3047.14 1001.54,3045.92 1000.18,3045.92 C998.54,3045.92 996.26,3047.54 995.66,3048.64 C995.54,3048.88 995.52,3049.06 995.52,3049.3 L995.52,3049.48 C995.52,3050.54 995.54,3051.6 995.58,3052.64 C995.6,3053 995.76,3055.34 995.76,3055.42 C995.76,3055.58 995.7,3055.64 995.4,3055.68 C994.8,3055.74 994.24,3055.76 993.62,3055.76 C992.78,3055.76 992.5,3055.76 992.5,3055.36 C992.5,3055.26 992.5,3055.12 992.52,3055.04 C992.6,3054.44 992.64,3052.96 992.64,3052.32 C992.64,3052.16 992.62,3051.94 992.38,3051.94 C992.1,3051.94 991.38,3053.12 991.22,3053.38 C991.14,3053.52 991.04,3053.7 990.86,3053.7 C990.4,3053.7 988.78,3051.96 988.78,3051.52 C988.78,3051.3 989,3051.1 989.2,3050.92 L989.32,3050.8 C990.58,3049.54 991.74,3048.06 992.62,3046.52 C992.7,3046.38 992.78,3046.2 992.78,3046.1 C992.78,3045.9 992.72,3045.7 992.5,3045.7 C992.4,3045.7 992.28,3045.74 992.16,3045.78 C991.76,3045.9 990.64,3046.2 990.24,3046.2 C989.9,3046.2 989.78,3045.84 989.7,3045.56 C989.6,3045.18 989.28,3043.74 989.28,3043.42 C989.28,3043 989.58,3042.96 989.88,3042.96 L990.16,3042.96 C990.66,3042.96 992.34,3042.92 992.68,3042.62 C992.8,3042.52 992.88,3042.34 992.88,3041.98 C992.9,3041.2 992.9,3040.42 992.9,3039.64 L992.9,3039.16 C992.9,3038.9 993.04,3038.82 993.28,3038.82 Z M1012.42,3040.76 C1012.82,3040.76 1015.16,3041.02 1015.54,3041.1 C1015.66,3041.12 1015.86,3041.2 1015.86,3041.34 C1015.86,3041.46 1015.72,3041.62 1015.64,3041.72 C1015.38,3042.02 1015.32,3042.66 1015.32,3043.68 C1015.32,3043.88 1015.32,3044.32 1015.74,3044.32 C1015.94,3044.32 1017.68,3044.02 1018.06,3043.96 C1018.42,3043.9 1018.62,3043.76 1018.62,3043.38 C1018.62,3042.62 1018.42,3041 1018.28,3040.24 C1018.26,3040.12 1018.22,3040 1018.22,3039.88 C1018.22,3039.68 1018.36,3039.58 1018.54,3039.58 C1018.78,3039.58 1020.84,3039.9 1021.62,3040.08 C1021.82,3040.12 1021.94,3040.2 1021.94,3040.32 C1021.94,3040.4 1021.84,3040.48 1021.72,3040.6 C1021.56,3040.78 1021.54,3041.44 1021.54,3041.92 L1021.54,3042.54 C1021.54,3042.62 1021.52,3042.72 1021.52,3042.82 C1021.52,3043.12 1021.64,3043.36 1021.98,3043.36 C1022.2,3043.36 1022.98,3043.26 1023.36,3043.2 C1023.68,3043.14 1024.6,3043 1024.86,3043 C1025.24,3043 1025.36,3043.12 1025.36,3044.62 C1025.36,3046.26 1025.34,3046.26 1024.66,3046.26 L1024.22,3046.26 C1023.84,3046.26 1022.16,3046.32 1021.88,3046.38 C1021.54,3046.46 1021.44,3046.7 1021.4,3047.08 C1021.12,3049.7 1020.34,3051.16 1017.44,3051.16 C1017.12,3051.16 1016.88,3051.14 1016.72,3050.84 C1016.52,3050.48 1016.34,3049.12 1016.34,3048.7 C1016.34,3048.48 1016.44,3048.28 1016.7,3048.28 C1016.9,3048.28 1017.1,3048.3 1017.3,3048.3 C1017.8,3048.3 1018.16,3048.2 1018.36,3047.68 C1018.4,3047.58 1018.5,3047.24 1018.5,3047.14 C1018.5,3047.08 1018.46,3046.86 1018.2,3046.86 C1018.08,3046.86 1017.7,3046.92 1016.6,3047.1 C1015.22,3047.32 1015.2,3047.42 1015.2,3048.12 L1015.2,3048.36 C1015.2,3048.9 1015.24,3050.46 1015.36,3050.94 C1015.66,3052.06 1016.66,3052.1 1017.92,3052.1 C1019.16,3052.1 1020.26,3051.98 1021.48,3051.8 C1021.62,3051.78 1022.04,3051.72 1022.18,3051.72 C1022.48,3051.72 1022.56,3051.98 1022.56,3052.72 C1022.56,3053.58 1022.5,3054.5 1022.3,3054.7 C1022,3054.98 1018.98,3055.06 1018.42,3055.06 C1017.32,3055.06 1015.88,3054.98 1014.86,3054.64 C1013.86,3054.3 1012.98,3053.44 1012.66,3052.44 C1012.32,3051.4 1012.32,3049.88 1012.3,3048.72 C1012.3,3048.42 1012.24,3048.08 1011.84,3048.08 C1011.6,3048.08 1009.64,3048.62 1009.2,3048.74 C1009.12,3048.76 1009.02,3048.78 1008.94,3048.78 C1008.66,3048.78 1008.58,3048.66 1008.46,3047.2 C1008.42,3046.72 1008.38,3046.2 1008.38,3045.82 C1008.38,3045.32 1008.6,3045.3 1009.04,3045.3 C1009.42,3045.3 1011.02,3045.08 1011.46,3045.02 C1011.98,3044.94 1012.2,3044.8 1012.2,3044.26 C1012.2,3043.44 1012.14,3042.26 1012.04,3041.46 C1012.04,3041.36 1012.02,3041.22 1012.02,3041.12 C1012.02,3040.86 1012.18,3040.76 1012.42,3040.76 Z M1033.56,3040.98 L1040,3040.98 C1040.48,3040.98 1041.8,3040.98 1042.2,3040.94 C1042.28,3040.92 1042.58,3040.88 1042.64,3040.88 C1042.92,3040.88 1043.18,3041.08 1043.48,3041.42 L1043.8,3041.78 C1044.1,3042.1 1044.36,3042.38 1044.36,3042.6 C1044.36,3042.74 1044.18,3043.2 1044.12,3043.42 C1044.02,3043.78 1043.96,3044.16 1043.88,3044.54 C1042.96,3048.94 1040.82,3051.72 1036.9,3053.9 C1036.32,3054.22 1034.5,3055.14 1033.88,3055.14 C1033.44,3055.14 1032.96,3054.28 1032.74,3053.9 C1032.58,3053.62 1032.22,3052.98 1032.22,3052.66 C1032.22,3052.44 1032.44,3052.4 1032.62,3052.36 C1034.54,3051.92 1037.02,3050.46 1038.38,3049.02 C1039.68,3047.66 1040.56,3045.3 1040.56,3044.44 C1040.56,3044.1 1040.18,3044.04 1039.66,3044.04 L1033.5,3044.04 C1032.66,3044.04 1031.8,3044.08 1030.96,3044.08 C1030.24,3044.08 1030.16,3043.98 1030.16,3043.06 L1030.16,3041.88 C1030.16,3041.06 1030.28,3040.94 1030.84,3040.94 C1031.74,3040.94 1032.66,3040.98 1033.56,3040.98 Z M1052.26,3046.06 C1053.72,3046.06 1055.6,3046 1056.52,3046 C1056.96,3046 1057.06,3045.64 1057.06,3045.28 L1057.06,3045.06 C1057.04,3044.44 1057.04,3043.82 1056.96,3043.2 C1056.96,3043.12 1056.94,3043.02 1056.94,3042.92 C1056.94,3042.66 1057.16,3042.6 1057.38,3042.6 C1057.68,3042.6 1059.02,3042.74 1059.36,3042.78 C1059.58,3042.82 1059.76,3042.88 1059.76,3043.08 C1059.76,3043.2 1059.68,3043.28 1059.6,3043.38 C1059.44,3043.54 1059.44,3043.7 1059.44,3043.92 C1059.44,3044.32 1059.46,3044.74 1059.46,3045.14 L1059.46,3045.32 C1059.46,3045.68 1059.66,3045.94 1060,3045.94 L1060.34,3045.94 C1060.76,3045.92 1062.48,3045.86 1062.54,3045.86 C1063.04,3045.86 1063.08,3046.12 1063.08,3047.34 C1063.08,3047.96 1063.04,3048.32 1062.48,3048.32 L1061.72,3048.32 C1061.28,3048.32 1060.84,3048.32 1060.38,3048.34 L1060.06,3048.34 C1059.76,3048.34 1059.52,3048.6 1059.52,3048.9 L1059.56,3051.78 C1059.58,3052.2 1059.58,3052.62 1059.58,3053.04 C1059.58,3053.78 1059.5,3054.46 1058.82,3054.94 C1058.26,3055.34 1057.22,3055.44 1056.54,3055.44 L1056.44,3055.44 C1056.12,3055.44 1055.78,3055.42 1055.62,3055.12 C1055.42,3054.76 1055.18,3053.7 1055.18,3053.28 C1055.18,3053.06 1055.28,3052.9 1055.5,3052.9 C1055.78,3052.9 1056.18,3053 1056.6,3053 C1057.16,3053 1057.18,3052.88 1057.18,3052.36 L1057.18,3051.94 L1057.14,3050.58 C1057.14,3050.42 1057.1,3050.28 1056.9,3050.28 C1056.74,3050.28 1056.64,3050.38 1056.54,3050.5 C1055.96,3051.14 1053,3054.04 1052.28,3054.04 C1051.94,3054.04 1050.56,3052.94 1050.56,3052.46 C1050.56,3052.26 1050.76,3052.16 1050.9,3052.08 C1052.04,3051.48 1053.64,3050.26 1054.58,3049.36 C1054.72,3049.22 1055.1,3048.86 1055.1,3048.68 C1055.1,3048.5 1054.96,3048.44 1054.82,3048.44 L1053.56,3048.46 C1053.16,3048.46 1051.74,3048.54 1051.52,3048.54 C1051,3048.54 1050.96,3048.1 1050.96,3047.68 L1050.96,3046.8 C1050.96,3046.3 1051.02,3046.04 1051.46,3046.04 C1051.72,3046.04 1052,3046.06 1052.26,3046.06 Z M1072.8,3045.54 L1082,3045.54 C1083.18,3045.54 1084.46,3045.46 1084.64,3045.46 C1085.16,3045.46 1085.24,3045.68 1085.24,3046.26 L1085.24,3047.22 C1085.24,3048.32 1085.22,3048.66 1084.58,3048.66 C1083.8,3048.66 1082.88,3048.6 1082,3048.6 L1072.8,3048.6 C1071.92,3048.6 1070.98,3048.66 1070.24,3048.66 C1069.56,3048.66 1069.56,3048.28 1069.56,3047.22 L1069.56,3046.3 C1069.56,3045.7 1069.62,3045.46 1070.14,3045.46 C1070.42,3045.46 1071.54,3045.54 1072.8,3045.54 Z M1096.08,3039.64 C1096.38,3039.64 1098.06,3040.38 1098.44,3040.56 C1098.5,3040.58 1098.56,3040.62 1098.62,3040.64 C1098.92,3040.76 1099.24,3040.88 1099.24,3041.08 C1099.24,3041.2 1099.08,3041.28 1098.98,3041.34 C1098.62,3041.52 1098.42,3041.9 1098.22,3042.26 C1098.18,3042.32 1098.14,3042.4 1098.1,3042.46 C1096.86,3044.74 1095.78,3047.08 1094.56,3049.38 C1094.5,3049.5 1094.46,3049.56 1094.46,3049.7 C1094.46,3049.9 1094.62,3050.06 1094.84,3050.06 C1094.94,3050.06 1095.16,3050.04 1095.32,3050.02 C1096.42,3049.92 1097.54,3049.8 1098.66,3049.68 C1099.06,3049.64 1099.4,3049.6 1099.4,3049.3 C1099.4,3049.16 1099.26,3048.98 1099.12,3048.84 C1098.72,3048.42 1098.28,3048.04 1097.86,3047.66 C1097.74,3047.54 1097.64,3047.44 1097.64,3047.28 C1097.64,3046.94 1098.3,3046.38 1098.56,3046.16 C1098.94,3045.8 1099.3,3045.44 1099.6,3045.44 C1099.82,3045.44 1100,3045.58 1100.14,3045.72 C1101.04,3046.52 1102.22,3047.8 1103,3048.72 C1103.42,3049.22 1105.26,3051.42 1105.26,3051.94 C1105.26,3052.4 1104.68,3052.86 1104.34,3053.12 C1104.04,3053.36 1103.48,3053.82 1103.08,3053.82 C1102.82,3053.82 1102.62,3053.48 1102.24,3052.84 C1102.16,3052.72 1102.08,3052.58 1102,3052.44 C1101.84,3052.22 1101.68,3052.04 1101.38,3052.04 C1101.32,3052.04 1100.58,3052.14 1100.46,3052.16 C1099.2,3052.3 1090.94,3053.3 1090.26,3053.42 C1090.04,3053.46 1089.94,3053.52 1089.82,3053.7 C1089.74,3053.78 1089.68,3053.86 1089.56,3053.86 C1089.32,3053.86 1089.24,3053.48 1089.14,3053.06 C1088.98,3052.4 1088.86,3051.74 1088.7,3051.1 C1088.66,3050.94 1088.64,3050.76 1088.64,3050.6 C1088.64,3050.32 1088.9,3050.32 1089.1,3050.32 C1089.32,3050.32 1089.54,3050.34 1089.76,3050.34 L1090.14,3050.34 C1090.92,3050.34 1090.96,3050.26 1091.54,3049.06 C1091.66,3048.8 1091.82,3048.5 1092,3048.14 C1092.8,3046.56 1095.24,3041.54 1095.7,3040.08 C1095.76,3039.86 1095.82,3039.64 1096.08,3039.64 Z" id="お問い合わせフォーム"></path>
        </g>
    </g>
</svg>