<?xml version="1.0" encoding="UTF-8"?>
<svg width="126px" height="21px" viewBox="0 0 126 21" version="1.1" xmlns="http://www.w3.org/2000/svg" xmlns:xlink="http://www.w3.org/1999/xlink">
    <!-- Generator: Sketch 51.2 (57519) - http://www.bohemiancoding.com/sketch -->
    <title>Google Maps</title>
    <desc>Created with Sketch.</desc>
    <defs></defs>
    <g id="main" stroke="none" stroke-width="1" fill="none" fill-rule="evenodd">
        <g id="PC-top" transform="translate(-208.000000, -3039.000000)" fill="#4C2A13">
            <path d="M221.22,3051.16 L221.22,3053.68 C221.22,3054.16 221.12,3054.3 220.68,3054.5 C219.66,3054.92 218.02,3055.26 216.46,3055.26 C211.08,3055.26 208.84,3052.08 208.84,3048.16 C208.84,3043.02 212.44,3040.28 217.06,3040.28 C218.4,3040.28 219.72,3040.58 220.64,3041 C220.92,3041.14 221.06,3041.26 221.06,3041.44 C221.06,3041.54 221.02,3041.66 220.96,3041.82 L220.12,3044.02 C220.02,3044.3 219.94,3044.44 219.8,3044.44 C219.7,3044.44 219.58,3044.38 219.4,3044.28 C218.76,3043.94 217.86,3043.7 217,3043.7 C214.26,3043.7 212.34,3045.38 212.34,3048.16 C212.34,3051.04 214.28,3052.2 216.62,3052.2 C216.88,3052.2 217.14,3052.18 217.38,3052.14 C217.86,3052.06 217.96,3051.94 217.96,3051.46 L217.96,3051.16 C217.96,3050.36 217.9,3048.8 217.9,3048.66 C217.9,3048.24 218.02,3048.16 218.48,3048.16 L220.7,3048.16 C221.16,3048.16 221.28,3048.24 221.28,3048.66 C221.28,3048.8 221.22,3050.36 221.22,3051.16 Z M228.94,3044.02 C232.1,3044.02 234.38,3046.22 234.38,3049.42 C234.38,3052.98 232.12,3055.26 228.5,3055.26 C225.32,3055.26 223.04,3053.08 223.04,3049.9 C223.04,3046.36 225.28,3044.02 228.94,3044.02 Z M228.78,3047.14 C227.24,3047.14 226.42,3048.32 226.42,3049.94 C226.42,3051.38 227.28,3052.46 228.6,3052.46 C230.1,3052.46 231,3051.32 231,3049.7 C231,3048.22 230.1,3047.14 228.78,3047.14 Z M241.88,3044.02 C245.04,3044.02 247.32,3046.22 247.32,3049.42 C247.32,3052.98 245.06,3055.26 241.44,3055.26 C238.26,3055.26 235.98,3053.08 235.98,3049.9 C235.98,3046.36 238.22,3044.02 241.88,3044.02 Z M241.72,3047.14 C240.18,3047.14 239.36,3048.32 239.36,3049.94 C239.36,3051.38 240.22,3052.46 241.54,3052.46 C243.04,3052.46 243.94,3051.32 243.94,3049.7 C243.94,3048.22 243.04,3047.14 241.72,3047.14 Z M252.28,3051.64 C252.28,3052.12 252.92,3052.3 254.4,3052.52 C256.44,3052.82 258.88,3053.32 258.88,3055.68 C258.88,3057.64 257.18,3059.4 252.9,3059.4 C249.56,3059.4 248.12,3058.06 248.12,3056.52 C248.12,3055.6 248.64,3054.74 249.48,3054.1 C249.74,3053.92 249.84,3053.82 249.84,3053.68 C249.84,3053.58 249.78,3053.46 249.68,3053.26 C249.54,3053 249.48,3052.7 249.48,3052.34 C249.48,3051.82 249.64,3051.4 249.92,3051.06 C250.08,3050.86 250.14,3050.74 250.14,3050.66 C250.14,3050.54 250.04,3050.44 249.86,3050.26 C249.22,3049.66 248.88,3048.82 248.88,3047.8 C248.88,3045.48 250.7,3044 253.68,3044 C254.02,3044 254.32,3044.02 254.62,3044.06 C255.14,3044.12 255.7,3044.16 256.24,3044.16 L256.72,3044.16 C257.48,3044.16 258.38,3044.12 258.58,3044.12 C258.98,3044.12 259.06,3044.22 259.06,3044.68 L259.06,3046.38 C259.06,3046.74 258.98,3046.86 258.7,3046.86 C258.62,3046.86 258.48,3046.84 258.38,3046.84 C258.1,3046.84 258.06,3046.92 258.06,3047.2 C258.06,3047.32 258.08,3047.46 258.08,3047.6 C258.08,3049.9 256.5,3051.42 253.42,3051.42 C253.12,3051.42 252.68,3051.38 252.56,3051.38 C252.36,3051.38 252.28,3051.42 252.28,3051.64 Z M253.6,3046.68 C252.5,3046.68 252,3047.32 252,3048.06 C252,3048.78 252.6,3049.24 253.54,3049.24 C254.66,3049.24 255.1,3048.54 255.1,3047.86 C255.1,3047.12 254.48,3046.68 253.6,3046.68 Z M252.7,3054.78 C252.6,3054.76 252.52,3054.76 252.44,3054.76 C252.2,3054.76 252.02,3054.84 251.8,3055.06 C251.52,3055.34 251.38,3055.64 251.38,3055.96 C251.38,3056.62 252.14,3057.02 253.16,3057.02 C254.62,3057.02 255.58,3056.66 255.58,3056.02 C255.58,3055.44 254.82,3055.12 253.48,3054.92 C253.22,3054.88 252.96,3054.84 252.7,3054.78 Z M265.34,3054.54 C265.34,3055.04 265.24,3055.14 264.74,3055.18 C264.42,3055.2 264.1,3055.2 263.78,3055.2 C261.2,3055.2 260.4,3054.1 260.4,3051.62 L260.4,3043.14 C260.4,3042.32 260.36,3040.38 260.36,3040.24 C260.36,3039.82 260.48,3039.74 260.94,3039.74 L263.12,3039.74 C263.58,3039.74 263.7,3039.82 263.7,3040.24 C263.7,3040.38 263.66,3042.32 263.66,3043.14 L263.66,3051.28 C263.66,3052.04 263.86,3052.38 264.54,3052.38 C264.72,3052.38 264.98,3052.36 265.04,3052.36 C265.26,3052.36 265.34,3052.44 265.34,3052.72 L265.34,3054.54 Z M275.48,3052.3 L276.14,3053.66 C276.22,3053.82 276.28,3053.96 276.28,3054.06 C276.28,3054.22 276.16,3054.32 275.88,3054.46 C274.9,3054.92 273.58,3055.26 272.1,3055.26 C268.02,3055.26 266.42,3052.8 266.42,3049.9 C266.42,3046.54 268.58,3044.02 271.98,3044.02 C274.76,3044.02 276.5,3045.68 276.5,3049.24 C276.5,3050.6 276.3,3050.76 275.7,3050.76 L270.18,3050.76 C269.86,3050.76 269.72,3050.82 269.72,3050.98 C269.72,3051.08 269.76,3051.18 269.82,3051.32 C270.22,3052.14 271.02,3052.52 272.3,3052.52 C273.18,3052.52 274.02,3052.34 274.68,3052.02 C274.86,3051.94 275,3051.88 275.1,3051.88 C275.26,3051.88 275.34,3052 275.48,3052.3 Z M272.94,3048.5 C273.3,3048.5 273.44,3048.44 273.44,3048.2 C273.44,3048.12 273.44,3048.04 273.4,3047.9 C273.2,3047.06 272.56,3046.8 271.82,3046.8 C270.96,3046.8 270.32,3047.18 269.94,3047.94 C269.86,3048.1 269.82,3048.2 269.82,3048.3 C269.82,3048.44 269.96,3048.5 270.28,3048.5 L272.94,3048.5 Z M286.34,3047.16 L286.26,3051.2 C286.24,3052.3 286.26,3054.06 286.26,3054.54 C286.26,3055.04 286.16,3055.14 285.66,3055.14 L283.42,3055.14 C282.96,3055.14 282.84,3055.06 282.84,3054.64 C282.84,3054.5 282.96,3052 282.98,3050.94 L283.1,3044.58 C283.12,3043.48 283.1,3041.44 283.1,3041 C283.1,3040.5 283.2,3040.4 283.7,3040.4 L285.02,3040.4 C285.52,3040.4 285.68,3040.48 286,3040.86 C286.7,3041.74 287.4,3042.58 288.08,3043.38 L290.4,3046.08 C290.56,3046.26 290.68,3046.36 290.78,3046.36 C290.9,3046.36 291.02,3046.26 291.18,3046.08 L293.4,3043.48 C294.08,3042.68 294.86,3041.76 295.58,3040.86 C295.9,3040.48 296.06,3040.4 296.56,3040.4 L297.88,3040.4 C298.38,3040.4 298.48,3040.5 298.48,3041 C298.48,3041.9 298.46,3043.02 298.48,3044.58 L298.6,3050.94 C298.62,3051.96 298.74,3054.44 298.74,3054.64 C298.74,3055.06 298.62,3055.14 298.16,3055.14 L295.86,3055.14 C295.36,3055.14 295.26,3055.04 295.26,3054.54 C295.26,3054.1 295.28,3052 295.26,3051.22 L295.18,3047.08 C295.18,3046.88 295.14,3046.72 295.04,3046.72 C294.98,3046.72 294.9,3046.76 294.76,3046.92 L291.18,3050.94 C291.04,3051.1 290.92,3051.22 290.7,3051.22 C290.5,3051.22 290.38,3051.12 290.24,3050.96 L286.76,3047.02 C286.62,3046.86 286.54,3046.8 286.46,3046.8 C286.38,3046.8 286.34,3046.96 286.34,3047.16 Z M309.52,3055.14 L307.7,3055.14 C307.26,3055.14 307.18,3055.08 307.16,3054.62 C307.14,3054.36 307.1,3054.24 306.98,3054.24 C306.92,3054.24 306.82,3054.28 306.7,3054.36 C305.8,3054.98 304.74,3055.26 303.76,3055.26 C301.88,3055.26 300.48,3054.24 300.48,3052.22 C300.48,3049.72 303.18,3048.4 306.38,3048.08 C306.68,3048.06 306.82,3047.98 306.82,3047.82 C306.82,3047.74 306.76,3047.62 306.68,3047.48 C306.44,3047.04 306,3046.82 305.22,3046.82 C304.3,3046.82 303.18,3047.2 302.36,3047.7 C302.18,3047.82 302.06,3047.88 301.98,3047.88 C301.84,3047.88 301.76,3047.76 301.64,3047.48 L301,3045.9 C300.92,3045.72 300.9,3045.62 300.9,3045.52 C300.9,3045.32 301,3045.22 301.3,3045.06 C302.54,3044.44 304.18,3044.02 305.68,3044.02 C308.96,3044.02 310.1,3045.5 310.1,3048.54 L310.02,3052.36 C310,3053.12 310.08,3054.46 310.08,3054.72 C310.08,3055.06 309.96,3055.14 309.52,3055.14 Z M306.9,3050.94 C306.9,3050.54 306.84,3050.42 306.56,3050.42 C306.5,3050.42 306.28,3050.44 306.18,3050.46 C304.78,3050.7 303.7,3051.2 303.7,3051.9 C303.7,3052.52 304.1,3052.76 304.82,3052.76 C305.34,3052.76 305.88,3052.6 306.38,3052.32 C306.78,3052.1 306.88,3051.94 306.88,3051.46 L306.9,3050.94 Z M316.34,3055.22 C316.24,3055.2 316.16,3055.2 316.1,3055.2 C315.84,3055.2 315.78,3055.34 315.78,3055.72 C315.78,3056.56 315.82,3058.5 315.82,3058.64 C315.82,3059.06 315.7,3059.14 315.24,3059.14 L313.04,3059.14 C312.58,3059.14 312.46,3059.06 312.46,3058.64 C312.46,3058.5 312.5,3056.56 312.5,3055.74 L312.5,3047.54 C312.5,3046.72 312.46,3044.78 312.46,3044.64 C312.46,3044.22 312.58,3044.14 313.04,3044.14 L315,3044.14 C315.44,3044.14 315.54,3044.22 315.56,3044.66 C315.58,3044.92 315.62,3045.02 315.72,3045.02 C315.78,3045.02 315.86,3044.98 316,3044.88 C316.74,3044.36 317.66,3044.02 318.66,3044.02 C321.42,3044.02 323.12,3046 323.12,3049.06 C323.12,3053.3 320.1,3055.26 316.98,3055.26 C316.78,3055.26 316.58,3055.26 316.34,3055.22 Z M316.88,3052.58 C318.44,3052.58 319.74,3051.5 319.74,3049.52 C319.74,3047.96 318.86,3047.16 317.66,3047.16 C317.16,3047.16 316.68,3047.3 316.26,3047.54 C315.88,3047.74 315.78,3047.92 315.78,3048.36 L315.78,3051.96 C315.78,3052.38 315.88,3052.5 316.3,3052.56 C316.48,3052.58 316.68,3052.58 316.88,3052.58 Z M329.5,3048.5 C331.1,3049.06 333.06,3049.8 333.06,3051.96 C333.06,3054.36 330.9,3055.28 328.54,3055.28 C327.18,3055.28 325.84,3055 324.84,3054.48 C324.56,3054.34 324.44,3054.24 324.44,3054.06 C324.44,3053.96 324.48,3053.82 324.56,3053.66 L325.22,3052.24 C325.34,3051.96 325.42,3051.84 325.56,3051.84 C325.66,3051.84 325.78,3051.9 325.96,3052 C326.74,3052.48 327.72,3052.76 328.5,3052.76 C329.36,3052.76 329.78,3052.5 329.78,3052.06 C329.78,3051.62 329.12,3051.3 328.24,3051.02 C326.72,3050.52 324.64,3049.74 324.64,3047.46 C324.64,3045.56 326.14,3044 329.28,3044 C330.4,3044 331.54,3044.26 332.36,3044.64 C332.64,3044.78 332.78,3044.88 332.78,3045.06 C332.78,3045.16 332.74,3045.28 332.68,3045.44 L332.04,3047.1 C331.92,3047.38 331.84,3047.52 331.7,3047.52 C331.6,3047.52 331.48,3047.46 331.3,3047.36 C330.7,3047.02 329.9,3046.78 329.16,3046.78 C328.3,3046.78 327.94,3047.08 327.94,3047.46 C327.94,3047.9 328.64,3048.2 329.5,3048.5 Z" id="Google-Maps"></path>
        </g>
    </g>
</svg>