<svg height="30" viewBox="0 0 30 30" width="30" xmlns="http://www.w3.org/2000/svg"><g fill="none" transform=""><path d="m28.3447368 0h-26.68947364c-.9141766 0-1.65526316.74108656-1.65526316 1.65526316v26.68947364c0 .9141766.74108656 1.6552632 1.65526316 1.6552632h14.37105264v-11.6026316h-3.8973684v-4.5394737h3.8973684v-3.3315789c0-3.8763158 2.368421-5.98421054 5.8210526-5.98421054 1.1672119-.00312356 2.3337663.05573122 3.4947369.17631579v4.03947369h-2.3842106c-1.8815789 0-2.2447368.89210526-2.2447368 2.20526316v2.8947368h4.4973684l-.5868421 4.5394737h-3.9105263v11.6026316h7.6315789c.9141766 0 1.6552632-.7410866 1.6552632-1.6552632v-26.68947364c0-.9141766-.7410866-1.65526316-1.6552632-1.65526316z" fill="#4267b2"/><path d="m20.4457279 30v-11.3891742h3.8474408l.577375-4.4559595h-4.4248158v-2.8414814c0-1.2915825.3572994-2.16469226 2.2085242-2.16469226h2.3457479v-3.97549083c-1.1439593-.11854893-2.293428-.17632119-3.4435371-.17307205-3.3995221 0-5.727146 2.06653194-5.727146 5.87411704v3.2806195h-3.8293169v4.4559595h3.8344951v11.3891742z" fill="#fff"/></g></svg>