<svg height="27" viewBox="0 0 32 27" width="32" xmlns="http://www.w3.org/2000/svg"><path d="m20.06336 40c12.07552 0 18.68032-10.3885164 18.68032-19.397391 0-.2950679 0-.5888066-.0192-.8812163 1.2849041-.9650702 2.394055-2.1600041 3.27552-3.5288524-1.1982348.5513274-2.4693385.9128877-3.77088 1.0726116 1.3705523-.8519991 2.3963181-2.1920461 2.8864-3.770755-1.2887584.7940986-2.698693 1.3537396-4.16896 1.6547727-2.0350941-2.2470427-5.2688392-2.7970143-7.8879369-1.3415223-2.6190977 1.4554919-3.9721911 4.5544736-3.3005431 7.5592141-5.2788535-.2747992-10.197151-2.8638555-13.53088-7.1228325-1.7425629 3.1150194-.8524955 7.1000505 2.03264 9.1005849-1.0448113-.0321551-2.0668424-.324823-2.97984-.8533045v.0863938c.0008552 3.2452058 2.2038419 6.0402991 5.2672 6.682889-.9665669.273722-1.9806968.3137346-2.96448.1169638.8600933 2.7771243 3.3248954 4.6795958 6.13376 4.7343776-2.3248192 1.8972493-5.1967238 2.9271901-8.1536 2.9240962-.5223634-.0010413-1.0442188-.0338829-1.56288-.0983559 3.002414 2.0007152 6.4958892 3.06195 10.06336 3.0570097" fill="#42c8f7" transform="translate(-10 -13)"/></svg>