<svg viewBox="0 0 130.38 119.72" xmlns="http://www.w3.org/2000/svg"><g fill="#fff"><path d="m5 103.41v9.42c1.2-.43 2.4-.82 3.62-1.28l.06.7a68.88 68.88 0 0 1 -7.13 3.38c-.08.61-.22.92-.44.92-.37 0-.76-.8-1.09-2.38 1.64-.37 2.84-.67 3.59-.88v-9.88h-3.3l-.2-.67h3.48v-7.1c1.64.09 2.45.3 2.45.67 0 .21-.36.49-1.06.79v5.64h1.2l1.11-1.8c.59.73 1.06 1.34 1.45 1.92l-.28.55zm5.9 1.4v11.49a1 1 0 0 0 .45 1 19.64 19.64 0 0 0 4.28.24c3.09 0 4.74-.21 5-.7a11.75 11.75 0 0 0 .87-4.27l.64.28v2.13c0 1.5.31 2.23.92 2.2a1.52 1.52 0 0 1 -1.11 1.52 32.61 32.61 0 0 1 -6.13.34c-3.28 0-5.2-.19-5.68-.55s-.66-1-.66-2.11v-11l-2.62.91-.42-.67 3-1.06v-7.37c1.61 0 2.42.22 2.42.61 0 .22-.34.49-1 .79v5.41l3.43-1.19v-7.48c1.61 0 2.42.25 2.42.64 0 .22-.36.49-1 .8v5.54l3.37-1.19.92-1.43c1.08.83 1.61 1.34 1.61 1.62a.37.37 0 0 1 -.19.3l-.62.52v8.47c0 1.47-.78 2.2-2.31 2.17a1.24 1.24 0 0 0 -.58-1.16 5.61 5.61 0 0 0 -1.59-.43v-.7a14.36 14.36 0 0 0 2.15.18c.61 0 .91-.27.91-.85v-7.92l-3.64 1.25v11.12h-1.43v-10.64z"/><path d="m40 103.29v8.71c1.06-.55 1.87-1 2.42-1.31l.14.73a45.3 45.3 0 0 1 -5.68 3.65c-.08.74-.25 1.1-.44 1.1s-.7-.79-1.12-2.34c1-.34 2.09-.74 3.23-1.22v-9.36h-2.93l-.22-.7h3.11v-6.85c1.7.09 2.51.3 2.51.7 0 .21-.34.46-1.06.7v5.49h.75l.92-1.5a8.59 8.59 0 0 1 1.17 1.41l.22.27-.3.52zm10.83 9.36a62.21 62.21 0 0 1 -7.6 3.44c-.11.7-.25 1.07-.42 1.07s-.69-.8-1.17-2.35a65.53 65.53 0 0 0 9-2.8zm2.5-1.8a32.94 32.94 0 0 0 2.26-6.43c1.31.76 2 1.34 2 1.7s-.22.34-.64.34a1.12 1.12 0 0 1 -.33 0 33.19 33.19 0 0 1 -2.76 6.22 19.89 19.89 0 0 0 2 3.62c.28.46.5.67.58.67.37 0 .7-1.67 1-5l.66.4c-.19 2-.27 3.41-.27 4.18 0 1.12.22 1.89.64 2.16-.23.61-.59.91-1.09.91s-1.47-.67-2.45-2a21.44 21.44 0 0 1 -2-3.5 17.31 17.31 0 0 1 -6.73 5.67l-.39-.61a18.81 18.81 0 0 0 6.51-6.49 48.35 48.35 0 0 1 -1.73-10.69h-7.54l-.28-.67h7.79c0-1.62-.08-3.6-.08-5.92 1.56.06 2.31.31 2.31.67s-.28.46-.89.74c0 1.76 0 3.23.08 4.42h4l.95-1.35a3.77 3.77 0 0 1 .42.46 6.49 6.49 0 0 1 .89 1l-.28.55h-5.96a45.77 45.77 0 0 0 1.2 9.14zm-5.59-6.34.78-1.13c.92.79 1.39 1.31 1.39 1.58a.31.31 0 0 1 -.2.28l-.52.37v5.63h-1.33v-1.12h-3v1.79h-1.34v-8.19l.25.12c.06 0 .5.24 1.34.67zm-2.81.7v4.21h3v-4.21zm8.6-9c1.82.79 2.77 1.79 2.77 2.84 0 .64-.25 1-.78 1s-.67-.34-.84-1a4.53 4.53 0 0 0 -1.5-2.38z"/><path d="m76.29 119.21c-.38.13-.65 0-.71-.13s.09-.29.5-.45a11.15 11.15 0 0 0 1.71-.81 22.47 22.47 0 0 0 3.77-2.54 19.38 19.38 0 0 0 4-4.48 20.06 20.06 0 0 0 2.56-5.8c.27-1 .09-1.42-.76-1.36s-1.89.13-3 .29-2.88.52-4.23.68a4.14 4.14 0 0 1 -3.13-.71c-.65-.58-1-1.38-.62-1.77s.82 0 1.26.16a6.71 6.71 0 0 0 1.8.48 15.55 15.55 0 0 0 3.38-.09c1.12-.13 3.36-.29 4.18-.39a2.73 2.73 0 0 0 1.48-.58.8.8 0 0 1 .94-.13c.26.19.76.65 1.29 1.13a1.85 1.85 0 0 1 .74 1.32c-.06.23-.33.35-.71.42s-.56.64-.94 1.61a24 24 0 0 1 -2.88 5.45 27.86 27.86 0 0 1 -5 4.93 16.16 16.16 0 0 1 -5.63 2.77zm12.77-20.11c-.23.32-.94.26-1.85 0a8.08 8.08 0 0 0 -2.77 0c-.82.06-2.12.32-3.38.48a3.54 3.54 0 0 1 -2.65-.38c-.62-.46-.94-1.29-.62-1.55s.68 0 1.12.16a9.09 9.09 0 0 0 3.47.13c1.3-.16 2.53-.42 3.36-.58a3 3 0 0 1 2.38.22c.71.42 1.18 1.13.94 1.52z"/><path d="m108 115.69a1.24 1.24 0 0 1 .64-1.64 6.66 6.66 0 0 0 1.74-1.39 5.84 5.84 0 0 0 1.27-1.71c.11-.32.29-.71.62-.67s.41.35.41.83a6.22 6.22 0 0 1 -.71 2.81 4.6 4.6 0 0 1 -1.88 2.09c-.81.36-1.69.45-2.09-.32zm.38-12c.32-.32 1.18.13 1.91.29a8.86 8.86 0 0 0 2.5.19l4.74-.19a23.91 23.91 0 0 0 -.09-2.39 3.65 3.65 0 0 0 -.67-1.9c-.38-.48-.77-1-.59-1.45s.53-.48 1.06-.35a3.31 3.31 0 0 1 1.68 1 1.85 1.85 0 0 1 .44 1.84 5.15 5.15 0 0 0 -.24 1.77v1.32l2.65-.19c1.21-.13 2.5-.39 3.36-.55a2.35 2.35 0 0 1 1.94.19c.5.32.88.71.79 1.19s-.56.62-1.29.49a12.44 12.44 0 0 0 -2.68-.26c-1.21 0-3.38.16-4.77.29 0 .84-.06 1.71-.06 2.45 0 1.71-.08 3.77 0 4.93s.21 2.8.24 3.71a4.29 4.29 0 0 1 -.47 2.48.83.83 0 0 1 -1.3.22c-.47-.32-.5-1.19-.73-1.9a2.78 2.78 0 0 0 -1.36-1.71c-.44-.19-.26-.67 0-.58a10.32 10.32 0 0 0 1.12.13c.62.1.86-.32.89-.9s0-1.51.05-3.16.06-2.64.06-4.77v-.77c-1 .1-2 .22-3.09.32a28.09 28.09 0 0 1 -3.38.29 2.86 2.86 0 0 1 -2.21-.58c-.69-.54-.88-1.08-.54-1.47zm17.75-4a12 12 0 0 0 -1.71-1.48.49.49 0 0 1 -.26-.64c.11-.13.35-.1.53-.1a4.17 4.17 0 0 1 1.58.39 3.69 3.69 0 0 1 1.73 1.3.78.78 0 0 1 -.44 1.16 1.58 1.58 0 0 1 -1.47-.62zm2.23 14c.56 1.55.3 2.23-.41 2.58a1.31 1.31 0 0 1 -1.65-.58 6.66 6.66 0 0 1 -.7-2.32 5.92 5.92 0 0 0 -1.09-2.58c-.33-.42-.44-.61-.3-.9s.48-.16.83 0a6.53 6.53 0 0 1 1.47.93 5.73 5.73 0 0 1 1.81 2.87zm.09-15.31a4.14 4.14 0 0 0 -1.82-1.32.52.52 0 0 1 -.27-.64.7.7 0 0 1 .5-.13 5.77 5.77 0 0 1 1.62.32 3.58 3.58 0 0 1 1.8 1.19.8.8 0 0 1 -.33 1.2 1.54 1.54 0 0 1 -1.54-.62z"/><path d="m14.18 8.16h6.62l1.2-1.4c1.14 1 1.69 1.54 1.69 1.86a.66.66 0 0 1 -.29.49l-.65.5v9.88h-1.65v-1.65h-6.59l.19.17a34.41 34.41 0 0 0 12.23 7 5.67 5.67 0 0 0 -1.43 1.87 30.56 30.56 0 0 1 -11.32-8.2v10h-1.76v-8.91a31.09 31.09 0 0 1 -12 7.88l-.42-.65a28.51 28.51 0 0 0 11.67-9.14h-6v1.79h-1.67v-12.4a9.75 9.75 0 0 1 2.09.91h6.29v-3.34h-11.17l-.43-.77h11.64v-3.8c2 .07 3 .38 3 .84 0 .28-.39.56-1.24.88v2.08h8.32l1.56-2.15a26.82 26.82 0 0 1 2.12 2.32l-.32.6h-11.68zm-1.76.78h-6.71v3.51h6.71zm0 4.32h-6.71v3.8h6.71zm1.76-4.32v3.51h6.92v-3.51zm0 4.32v3.8h6.92v-3.8z"/><path d="m35 26.46a23.51 23.51 0 0 0 6.84-7.85c1.54.88 2.35 1.55 2.35 2s-.33.39-.94.39a1.87 1.87 0 0 1 -.49 0 19.35 19.35 0 0 1 -7.31 6.2zm11.79-21.64v-4.5c2.06 0 3.07.31 3.07.81 0 .28-.46.59-1.37.88v2.81h8.15l1.66-2.36a14.3 14.3 0 0 1 2.28 2.54l-.36.63h-24.64l-.3-.81zm7.63 11.36h-5.51v9.82c0 1.23-.39 2-1.21 2.28a4.78 4.78 0 0 1 -1.7.32 1.57 1.57 0 0 0 -.95-1.37 13 13 0 0 0 -3-.81v-.81a36.55 36.55 0 0 0 4.14.35.85.85 0 0 0 .94-.95v-8.83h-5.88v1.55h-1.73v-9.64a13.63 13.63 0 0 1 2 .95h12.61l1.17-1.44c1.31 1 2 1.69 2 1.93s-.1.25-.23.36l-.85.59v7.22h-1.8zm0-.77v-5.59h-13.17v5.59zm-2.48 3.17a21.77 21.77 0 0 1 6 3.66 4.31 4.31 0 0 1 1.76 2.81c0 .81-.36 1.2-1 1.2a1.1 1.1 0 0 1 -.91-.6 20.48 20.48 0 0 0 -6.2-6.41z"/><path d="m69.85 28.32-.46-.77c6.91-2.92 10.76-8.55 11.48-16.78h-10.87l-.25-.77h11.18c.07-1 .07-1.7.07-2.15v-6.65c2 .07 3.06.38 3.06.84s-.42.6-1.27.88v4.86c0 .45 0 1.19-.06 2.21h8.27l1.57-2.28a24.52 24.52 0 0 1 2 2.46l-.29.6h-11.28a22.52 22.52 0 0 0 12.31 14.91 7.59 7.59 0 0 0 -1.66 1.9 23 23 0 0 1 -11.12-15.23c-1.08 8.23-5.28 13.54-12.68 15.97z"/><path d="m119.93 6.76a38.63 38.63 0 0 0 2.94-6.76c1.89.66 2.83 1.23 2.83 1.72 0 .28-.49.46-1.4.53a39 39 0 0 1 -3.3 4.51h5.38l1.1-1.48c1.37 1.37 2.09 2.25 2.09 2.6 0 .11-.13.25-.42.35l-.92.32a19.85 19.85 0 0 1 -2.73 2.92l-.56-.46a20.37 20.37 0 0 0 1.5-3.45h-19.39v.44a7.6 7.6 0 0 1 -.81 3.91c-.43.74-.91 1.09-1.4 1.09-.75 0-1.08-.39-1.08-1.13a1.22 1.22 0 0 1 .42-1 7.8 7.8 0 0 0 2-5.28h.69c.1.67.16 1 .16 1.06zm-1.24 9.11c0 .24-.42.49-1.24.74v1.86h8.35l1.57-2.22a15.61 15.61 0 0 1 1.95 2.43l-.36.6h-11.41v6.72c0 1.59-1 2.43-3.16 2.47a1.25 1.25 0 0 0 -.72-1.19 16.48 16.48 0 0 0 -3.78-.92v-.84a49 49 0 0 0 4.92.35c.69 0 1-.32 1-.95v-5.64h-11.53l-.36-.81h11.81v-3.73l1.56.32.16-.11a23.61 23.61 0 0 0 3.55-2.95h-12.22l-.32-.81h12.65l1.2-1.3c1.44 1.2 2.12 2 2.12 2.25s-.13.28-.45.36l-.82.14a28.43 28.43 0 0 1 -5 2.74c.37.17.53.35.53.49zm-11.21-15.38c3 1.13 4.5 2.47 4.5 3.94 0 .85-.36 1.23-1 1.23-.42 0-.75-.35-1-1a8.18 8.18 0 0 0 -2.83-3.51zm6.26-.49c2.67 1.34 4 2.81 4 4.33 0 .77-.36 1.19-1 1.19-.52 0-.85-.38-1-1.12a8.13 8.13 0 0 0 -2.46-3.84z"/><path d="m4.9 45.64v2.73h2.76l.58-.75a6.9 6.9 0 0 1 .71.8l-.12.2h-8.64l-.1-.25h4.17v-2.73h-2.89l-.1-.26h3v-2.38h-2.27a9 9 0 0 1 -1.51 2.35l-.2-.15a11.33 11.33 0 0 0 1.71-4.41c.67.16 1 .32 1 .46s-.16.17-.46.22c-.12.43-.26.85-.43 1.29h2.15v-2.45c.72 0 1.09.13 1.09.27s-.15.21-.45.31v1.87h2.35l.54-.76a6 6 0 0 1 .68.77l-.11.23h-3.46v2.36h1.87l.53-.72a7.22 7.22 0 0 1 .69.75l-.12.23z"/><path d="m16.49 43.6.05-.09a9.17 9.17 0 0 0 .56-1.67c.6.2.9.36.9.53s-.14.14-.41.14a6.71 6.71 0 0 1 -.75 1.09h1.82l.51-.63c.24.21.47.45.7.68l-.11.2h-7.33v1.42a5.49 5.49 0 0 1 -1.29 4l-.2-.16a6.89 6.89 0 0 0 .9-3.78v-2l.25.11.42.2zm-1.2-2.05v-1.39c.66 0 1 .09 1 .23s-.15.18-.43.29v.87h2.56l.5-.64a4.77 4.77 0 0 1 .71.71l-.1.18h-7.72l-.12-.25zm1.09 5.72v1.33h2.36l.54-.65a4.57 4.57 0 0 1 .73.73l-.11.18h-7.27l-.12-.26h3.29v-1.33h-2.17l-.11-.27h2.28v-1.2h-1.8a5.72 5.72 0 0 1 -1.12 1.56l-.2-.16a7.65 7.65 0 0 0 1.21-2.88c.59.15.88.3.88.44s-.15.15-.42.17c-.08.24-.14.44-.22.62h1.67v-1.41c.66 0 1 .11 1 .27s-.13.17-.4.26v.88h1.81l.48-.61a4.78 4.78 0 0 1 .73.66l-.12.2h-2.9v1.2h1.47l.49-.63a5.36 5.36 0 0 1 .68.68l-.12.2zm-2.85-5.4c.83.39 1.25.83 1.25 1.3a.35.35 0 0 1 -.37.39c-.16 0-.25-.13-.29-.35a2.06 2.06 0 0 0 -.73-1.16z"/><path d="m31.22 48.5a2.12 2.12 0 0 0 -.49.62 8.47 8.47 0 0 1 -2.56-1.55 8.51 8.51 0 0 1 -3.36 1.68l-.15-.25a8.07 8.07 0 0 0 3.13-1.84 9.08 9.08 0 0 1 -1.5-2.51l-.07-.17h-.56l-.1-.25h2.23v-1.92h-2.25a.09.09 0 0 1 0 0l.07.08-.11.19h-1.5v1.93c.42-.18.89-.42 1.43-.7l.1.25c-.4.27-.92.59-1.53.94v3.4c0 .56-.3.83-.91.82a.46.46 0 0 0 -.33-.44 3.7 3.7 0 0 0 -.71-.17v-.27a6.76 6.76 0 0 0 1.05.06c.21 0 .33-.09.33-.28v-2.75l-.87.45c0 .29-.07.44-.17.44s-.3-.31-.48-.9c.31-.1.82-.28 1.52-.55v-2.18h-1.34l-.09-.25h1.46v-2.2c.68 0 1 .09 1 .23s-.15.18-.45.29v1.68h.51l.47-.67.27.29.06.06h2.44v-1.89c.7 0 1 .09 1 .24s-.14.2-.46.31v1.34h1.52l.54-.7a5.55 5.55 0 0 1 .67.75l-.11.2h-2.56v1.92h1.16l.41-.48c.4.36.62.58.62.67a.1.1 0 0 1 -.1.11l-.29.15a8.73 8.73 0 0 1 -1.62 2.48 7.65 7.65 0 0 0 2.68 1.34zm-1.65-4h-3a7.47 7.47 0 0 0 1.56 2.31 8.22 8.22 0 0 0 1.44-2.33z"/><path d="m35.34 44.69c0 .07-.11.15-.35.24v4.33h-.57v-4.26a10 10 0 0 1 -1.23 1.21l-.19-.21a14.25 14.25 0 0 0 2.48-3.68 2.58 2.58 0 0 1 .6.44h1.3v-2.48c.65 0 1 .1 1 .26s-.15.17-.41.26v2h.67l.4-.54a4.52 4.52 0 0 1 .56.59l-.1.2h-1.5v6h-.57v-6.05h-1.29a1.11 1.11 0 0 1 -.38 0 10.26 10.26 0 0 1 -.9 1.39c.32.14.48.22.48.3zm-2.29-1.52a9.44 9.44 0 0 0 2.18-2.89c.49.25.74.44.74.57s-.15.14-.44.14a8.3 8.3 0 0 1 -2.32 2.37zm2.76 4.66a16.14 16.14 0 0 0 .41-3.9c.57.11.85.24.85.39s-.1.14-.3.19a10.05 10.05 0 0 1 -.77 3.49zm2.7-4a5.68 5.68 0 0 1 .92 2.72c0 .44-.13.65-.36.65s-.26-.15-.26-.47a7.79 7.79 0 0 0 -.53-2.78zm0-3.15c.59.33.88.7.88 1.08s-.11.37-.34.37-.27-.11-.28-.34a1.6 1.6 0 0 0 -.4-1zm2.82 3.05v4.71c0 .52-.33.76-1 .76 0-.19-.11-.3-.32-.38a6.11 6.11 0 0 0 -.92-.19v-.28a12.59 12.59 0 0 0 1.3.08c.23 0 .35-.1.35-.32v-4.4h-1.5l-.12-.26h2.15l.48-.64a5.29 5.29 0 0 1 .65.71l-.11.19zm-.33-2.64.49-.63a6.67 6.67 0 0 1 .63.69l-.12.2h-2.52l-.11-.26z"/><path d="m46.31 44h1.07l.37-.46c.39.33.58.55.58.64a.19.19 0 0 1 -.08.11l-.25.14v3.97h-.55v-.62h-1.25v1.1h-.57v-4a11.36 11.36 0 0 1 -1.09 1.61l-.21-.14a11.62 11.62 0 0 0 1.84-5h-1.49l-.08-.26h3l.49-.65a4.28 4.28 0 0 1 .59.71l-.11.2h-1.73a15.44 15.44 0 0 1 -.75 2.51l.12.07zm-.11.25v3.24h1.25v-3.21zm6.12-2.9v3.18h.41l.44-.71a6.41 6.41 0 0 1 .57.75l-.11.22h-1.27v4.3h-.6v-4.3h-1.5a5.07 5.07 0 0 1 -2.41 4.5l-.19-.21a5.29 5.29 0 0 0 2-4.29h-1.2l-.11-.26h1.34v-3.15h-.89l-.12-.26h3.81l.49-.69a4.91 4.91 0 0 1 .63.75l-.11.2zm-.59 0h-1.45v3.18h1.45z"/><path d="m55.94 46-.1-.24h2.81c0-.24 0-.39 0-.47v-1.1c.69 0 1 .12 1 .26s-.14.17-.42.28v.53.39h1.77l.4-.44c.4.32.6.51.6.6a.13.13 0 0 1 -.09.12l-.24.15v2.06c0 .17.05.27.15.31a2 2 0 0 0 .52 0c.57 0 .88-.09 1-.27a11.1 11.1 0 0 0 .22-1.57l.26.12a6.25 6.25 0 0 0 .1 1.37.34.34 0 0 0 .36.21.52.52 0 0 1 -.32.54 6.06 6.06 0 0 1 -1.47.11c-.68 0-1.09-.05-1.21-.19s-.14-.23-.14-.47v-2.39h-1.89q-.39 2.63-3.94 3.35l-.13-.26q3-.78 3.44-3zm3.35-4.26v-1.61c.68 0 1 .09 1 .25s-.14.19-.44.29v1h3.07l.38-.5c.49.5.72.78.72.88s0 .09-.14.11l-.37.06a5.62 5.62 0 0 1 -1 .67l-.16-.16a6.44 6.44 0 0 0 .58-.82h-2.24v1.51c0 .17.05.25.17.28a3.23 3.23 0 0 0 .88.06c.67 0 1-.06 1.16-.18a2.15 2.15 0 0 0 .2-.84l.26.07a3.54 3.54 0 0 0 0 .74.27.27 0 0 0 .27.15.49.49 0 0 1 -.38.51 9.19 9.19 0 0 1 -1.58.07 4.94 4.94 0 0 1 -1.35-.11c-.17-.08-.26-.26-.26-.56v-1.7h-3.68v.09a2.59 2.59 0 0 1 -.25 1.21c-.13.27-.31.41-.51.41a.32.32 0 0 1 -.36-.35.5.5 0 0 1 .15-.29 2.48 2.48 0 0 0 .59-1.71h.25a2.2 2.2 0 0 1 .06.37zm-3.89 3.2a5.24 5.24 0 0 0 2.82-2.75c.6.16.89.32.89.44s-.16.16-.49.18a5.2 5.2 0 0 1 -3.1 2.34z"/><path d="m69.59 42.86.37-.49c.4.33.6.54.6.65s0 .07-.09.11l-.22.14v2.93h-.58v-.67h-2a5.7 5.7 0 0 1 -1.19 3.65l-.23-.18a7.52 7.52 0 0 0 .83-3.89v-2.6a4.06 4.06 0 0 1 .66.35zm.12-1.69.5-.67a8.66 8.66 0 0 1 .65.72l-.1.2h-4.06l-.09-.25zm-2 1.95v2.15h2v-2.15zm4.22 1a6.57 6.57 0 0 1 -2.09 5.15l-.19-.19a7.24 7.24 0 0 0 1.62-5.08v-2.9l.61.3a8.84 8.84 0 0 0 2.36-1.06c.46.29.67.49.67.62s-.06.1-.2.1h-.29a18.72 18.72 0 0 1 -2.5.64v2.16h2.54l.49-.66a4.38 4.38 0 0 1 .64.73l-.12.19h-1.47v5.05h-.59v-5.05z"/><path d="m77.22 49.07a8.37 8.37 0 0 0 1.31-5.13v-3.48c.71 0 1.06.09 1.06.26s-.13.18-.42.3v2.88q0 3.72-1.74 5.36zm4.42-1.07v-7c.7 0 1 .12 1 .27s-.15.2-.43.3v6.43zm3.24 1v-8.7c.73 0 1.09.14 1.09.3s-.15.19-.46.3v8.1z"/><path d="m88.64 42.27c.88.29 1.3.69 1.3 1.15 0 .26-.11.4-.34.4s-.26-.1-.31-.3a1.89 1.89 0 0 0 -.77-1.07zm6.38.67a7.14 7.14 0 0 0 3.06 2.16 1.54 1.54 0 0 0 -.47.59 7.46 7.46 0 0 1 -2.32-1.85c-.17-.22-.39-.53-.63-.9h-.86a5.81 5.81 0 0 1 -3.15 3.21l-.13-.23a6.1 6.1 0 0 0 2.64-3h-2l-1 3.36a3.78 3.78 0 0 0 -.17.74 1.47 1.47 0 0 0 .07.38 4.48 4.48 0 0 1 .13.94q0 .69-.48.69a.31.31 0 0 1 -.34-.35s0-.27.08-.65a3.62 3.62 0 0 0 0-.6c0-.45-.09-.74-.3-.88a1.09 1.09 0 0 0 -.5-.17v-.28h.43a.75.75 0 0 0 .65-.49 28.2 28.2 0 0 0 1.36-3.61l.25.14-.16.51h2.08a8.15 8.15 0 0 0 .35-1.31c-.65.11-1.39.21-2.25.29l-.07-.27a18.06 18.06 0 0 0 4.79-1.23c.49.29.74.5.74.62s-.06.1-.2.1a1.35 1.35 0 0 1 -.37-.05c-.68.16-1.34.31-2 .43a13.08 13.08 0 0 1 -.37 1.42h2.76l.51-.65a5.14 5.14 0 0 1 .67.72l-.1.19zm-5.75-2.84c.92.29 1.39.67 1.39 1.12 0 .27-.12.4-.37.4a.26.26 0 0 1 -.29-.22 2.11 2.11 0 0 0 -.89-1.1zm3.4 5.71a3.53 3.53 0 0 1 -.51 2c-.22.31-.43.47-.63.47s-.35-.12-.35-.38c0-.1.1-.21.29-.32a2.57 2.57 0 0 0 1-1.86zm-.53 2.53a8.27 8.27 0 0 0 1.07.06c.25 0 .36-.1.36-.3v-3.72c.66 0 1 .12 1 .26s-.14.19-.41.29v3.47c0 .55-.32.81-1 .81a.4.4 0 0 0 -.2-.38 2.57 2.57 0 0 0 -.84-.23zm2.6-2.67a3.55 3.55 0 0 1 1.33 2.2q0 .45-.36.45c-.16 0-.28-.17-.34-.5a4.89 4.89 0 0 0 -.82-2zm1.26-.21c1.21.82 1.81 1.55 1.81 2.17 0 .26-.1.39-.31.39s-.3-.13-.39-.39a5.39 5.39 0 0 0 -1.27-2z"/><path d="m101.13 44h1.1l.38-.47c.39.34.59.56.59.66a.19.19 0 0 1 -.08.11l-.26.14v4h-.56v-.64h-1.3v1.2h-.59v-4.1a12.46 12.46 0 0 1 -1.1 1.65l-.22-.15a11.86 11.86 0 0 0 1.91-5.06h-1.54l-.09-.27h3l.5-.67a4.53 4.53 0 0 1 .61.73l-.12.21h-1.73a15.21 15.21 0 0 1 -.77 2.57l.14.09zm-.12.25v3.33h1.29v-3.29zm6.28-3v3.25h.42l.45-.72a6.78 6.78 0 0 1 .59.77l-.12.22h-1.3v4.41h-.61v-4.33h-1.54a5.19 5.19 0 0 1 -2.47 4.62l-.2-.22a5.38 5.38 0 0 0 2.07-4.4h-1.25l-.11-.27h1.37v-3.25h-.91l-.13-.27h3.92l.49-.71a4.22 4.22 0 0 1 .65.77l-.11.21zm-.61 0h-1.49v3.25h1.49z"/><path d="m110.94 46-.11-.25h2.89c0-.25 0-.4 0-.48v-1.1c.71 0 1.05.12 1.05.26s-.13.19-.42.29v.54a3.74 3.74 0 0 1 0 .41h1.78l.41-.45c.41.32.62.52.62.61s0 .09-.09.13l-.26.15v2.11c0 .17.06.28.17.32a2 2 0 0 0 .53 0c.57 0 .9-.1 1-.28a12.31 12.31 0 0 0 .23-1.61l.26.13a5.68 5.68 0 0 0 .11 1.4c.05.15.17.22.37.22a.52.52 0 0 1 -.34.55 6.06 6.06 0 0 1 -1.5.12c-.7 0-1.12-.06-1.25-.2a.6.6 0 0 1 -.14-.48v-2.46h-1.88c-.26 1.81-1.6 3-4 3.44l-.13-.26q3.11-.81 3.53-3.13zm3.44-4.38v-1.62c.69 0 1 .09 1 .26s-.14.19-.45.3v1h3.15l.39-.5c.5.5.74.79.74.9s0 .09-.15.11l-.38.06a5.52 5.52 0 0 1 -1 .69l-.17-.17a5.93 5.93 0 0 0 .6-.83h-2.32v1.55c0 .17.06.25.17.28a3.46 3.46 0 0 0 .9.06c.7 0 1.09-.06 1.19-.18a1.89 1.89 0 0 0 .21-.87l.27.08a3.59 3.59 0 0 0 0 .75.27.27 0 0 0 .28.16.5.5 0 0 1 -.39.52 9.73 9.73 0 0 1 -1.62.07 4.71 4.71 0 0 1 -1.38-.11q-.27-.12-.27-.57v-1.7h-3.83v.07a2.53 2.53 0 0 1 -.26 1.23.6.6 0 0 1 -.51.43.32.32 0 0 1 -.37-.36.47.47 0 0 1 .15-.3 2.5 2.5 0 0 0 .64-1.75h.26c0 .13 0 .26.07.38zm-4 3.34a5.34 5.34 0 0 0 2.9-2.82c.61.17.91.33.91.45s-.16.17-.5.19a5.4 5.4 0 0 1 -3.18 2.4z"/><path d="m125.75 46.92v1.69h3l.6-.71a6.88 6.88 0 0 1 .75.78l-.12.19h-9l-.13-.26h4.25v-1.69h-3.26l-.13-.26h3.39v-1.38c.7 0 1 .16 1 .3s-.13.17-.43.26v.82h2.33l.52-.63a4.19 4.19 0 0 1 .7.7l-.11.19zm-.6-5.67v-1.35c.7 0 1 .09 1 .25s-.15.17-.46.3v.8h3.2l.39-.49c.49.46.75.75.75.88s-.05.1-.15.13l-.35.07a5.71 5.71 0 0 1 -.82.72l-.19-.15a4.21 4.21 0 0 0 .4-.91h-6.84a2.82 2.82 0 0 1 -.21 1.19c-.15.36-.34.52-.55.52a.47.47 0 0 1 -.26-.12.3.3 0 0 1 -.14-.24c0-.1.08-.21.22-.35a2.39 2.39 0 0 0 .61-1.66h.28a3.15 3.15 0 0 1 0 .37zm2.61 3.24a6.32 6.32 0 0 0 -1.3-.91l.14-.22a6.37 6.37 0 0 1 2 1.08 1.09 1.09 0 0 1 .44.71c0 .23-.1.35-.31.35s-.24-.11-.38-.31-.2-.27-.35-.45h-.24c-1.55.2-3.3.38-5.28.51-.08.26-.15.38-.21.38s-.29-.31-.4-1h1.77a11.68 11.68 0 0 0 .75-1.62l.06-.12h-2.1l-.11-.26h5.24l.51-.6.12.1a8.14 8.14 0 0 1 .59.57l-.12.19h-3.28a12.27 12.27 0 0 1 -1.27 1.73c.97.03 2.24-.03 3.73-.13z"/><path d="m70.59 72.73a27.65 27.65 0 0 0 7.85-12.45c1.56.59 2.34 1.06 2.34 1.43s-.35.43-1.1.62a28.9 28.9 0 0 1 -4.2 7 22.69 22.69 0 0 1 -4.48 3.96zm4.23-1.43-.21-.71h12l1-1.24c1 .84 1.53 1.4 1.53 1.68a.54.54 0 0 1 -.26.4l-.55.43c0 5.48-.43 9-1.27 10.68a3.09 3.09 0 0 1 -3 1.67 1.35 1.35 0 0 0 -1.06-1.21 12.54 12.54 0 0 0 -2.75-.69v-.74a30.82 30.82 0 0 0 4.09.37c.89 0 1.5-.58 1.76-1.73a45.54 45.54 0 0 0 .7-8.89h-6.2a18 18 0 0 1 -2.23 8 13.31 13.31 0 0 1 -6.29 5.17l-.37-.62a13.17 13.17 0 0 0 6.17-7.12 21.74 21.74 0 0 0 1.12-5.45zm9.7-11a26 26 0 0 0 8.78 10 5.26 5.26 0 0 0 -1.37 1.7 26.33 26.33 0 0 1 -6.19-7.5c-.58-1.08-1.22-2.38-1.89-3.83z"/><path d="m118.56 78.3v4.55h7.59l1.51-1.92a19.58 19.58 0 0 1 1.88 2.07l-.32.49h-22.53l-.32-.68h10.63v-4.51h-8.17l-.32-.68h8.49v-3.72c1.77.16 2.61.44 2.61.81s-.32.46-1.08.71v2.2h5.6l1.3-1.7a12.14 12.14 0 0 1 1.77 1.89l-.29.49zm-1.5-15.2v-3.62c1.77 0 2.63.25 2.63.68 0 .22-.37.46-1.15.8v2.14h8l1-1.3c1.25 1.24 1.89 2 1.89 2.35 0 .19-.12.28-.38.34l-.87.19a14.13 14.13 0 0 1 -2.06 1.95l-.49-.4a11.72 11.72 0 0 0 1-2.45h-17.13a8.11 8.11 0 0 1 -.5 3.22c-.38 1-.84 1.39-1.36 1.39a1.13 1.13 0 0 1 -.67-.31.85.85 0 0 1 -.35-.65c0-.28.21-.55.55-.93a6.65 6.65 0 0 0 1.49-4.5l.69.09a7.88 7.88 0 0 1 .12 1zm6.54 8.7a16.41 16.41 0 0 0 -3.24-2.45l.35-.58a15.53 15.53 0 0 1 5.07 2.91 3 3 0 0 1 1.1 1.88q0 .93-.78.93c-.26 0-.61-.28-1-.8a10.43 10.43 0 0 0 -.87-1.21l-.61.09c-3.88.53-8.28 1-13.23 1.37-.21.71-.38 1-.56 1-.4 0-.72-.84-1-2.54 1 0 2.46 0 4.43-.06a31.2 31.2 0 0 0 1.94-4.34l.15-.34h-5.27l-.26-.68h13.18l1.27-1.61.29.28a14 14 0 0 1 1.44 1.54l-.29.49h-8.23a33.79 33.79 0 0 1 -3.18 4.65c2.47-.1 5.57-.25 9.3-.53z"/><path d="m.7 67.55-.21-.68h4.41v-6.16c1.73.06 2.63.34 2.63.77 0 .25-.38.5-1.1.78v4.46h3.39l1-1.43c1.11 1 1.66 1.58 1.66 1.86 0 .09-.09.19-.27.31l-.66.46v1.43c0 7.24-.32 11.7-.93 13.4a2.88 2.88 0 0 1 -3.07 2.14 1.25 1.25 0 0 0 -.55-1.08 7.88 7.88 0 0 0 -2.32-.75v-.74a20.83 20.83 0 0 0 3.16.34 1.45 1.45 0 0 0 1.54-1.3 72.27 72.27 0 0 0 .69-12.29v-1.64h-3.64c0 8.14-1.94 14.12-5.94 17.89l-.49-.49a23.52 23.52 0 0 0 4.43-10.83 52 52 0 0 0 .47-6.47zm19.92-2.41 1.05-1.4c1.07.93 1.59 1.55 1.59 1.83a.27.27 0 0 1 -.14.25l-.73.49v18h-1.48v-2.39h-5v2.75h-1.5v-20.49a18 18 0 0 1 1.82 1zm-4.75.68v15.39h5v-15.39z"/><path d="m44.87 76.38a.76.76 0 0 1 .35.19c3 1.7 4.54 3.22 4.54 4.61q0 1-.87 1c-.37 0-.69-.31-1-.93a12.47 12.47 0 0 0 -3.34-4.25 17 17 0 0 1 -8.81 7.28l-.43-.68a17.75 17.75 0 0 0 8.54-8.6 22.61 22.61 0 0 0 1.74-6.63h-9.7l-.23-.68h10a19.47 19.47 0 0 0 .12-2.54v-4.93c1.79 0 2.72.28 2.72.74 0 .25-.38.53-1.13.81v3.34a23.33 23.33 0 0 1 -.12 2.57h7.42l1.45-2.07a16.9 16.9 0 0 1 1.88 2.13l-.29.62h-10a27.29 27.29 0 0 0 11 14 7.1 7.1 0 0 0 -1.47 1.55 28.69 28.69 0 0 1 -10.11-14.91 22.18 22.18 0 0 1 -2.26 7.38z"/></g></svg>