<?xml version="1.0" encoding="UTF-8"?>
<svg width="291px" height="19px" viewBox="0 0 291 19" version="1.1" xmlns="http://www.w3.org/2000/svg" xmlns:xlink="http://www.w3.org/1999/xlink">
    <!-- Generator: Sketch 51.2 (57519) - http://www.bohemiancoding.com/sketch -->
    <title>「これから」を一緒に考えましょう。</title>
    <desc>Created with Sketch.</desc>
    <defs></defs>
    <g id="main" stroke="none" stroke-width="1" fill="none" fill-rule="evenodd">
        <g id="PC-top" transform="translate(-238.000000, -682.000000)" fill="#4C2A13">
            <g id="Group-3" transform="translate(208.000000, 659.000000)">
                <path d="M32.034,23.983 L35.454,23.983 C35.834,23.983 36.195,23.926 36.575,23.926 C36.974,23.926 37.088,24.097 37.088,24.477 C37.088,24.914 36.955,25.066 36.537,25.066 C36.214,25.066 35.853,25.009 35.454,25.009 L32.338,25.009 C31.711,25.009 31.616,25.199 31.616,25.788 L31.616,39.012 C31.616,39.677 31.654,40.342 31.654,41.007 C31.654,41.463 31.54,41.634 31.065,41.634 C30.59,41.634 30.476,41.463 30.476,41.007 C30.476,40.342 30.533,39.677 30.533,39.012 L30.533,26.567 C30.533,26.016 30.514,25.465 30.514,24.914 C30.514,24.23 30.704,23.945 31.407,23.945 C31.597,23.945 31.73,23.983 32.034,23.983 Z M41.94,29.075 C41.94,28.885 42.168,27.593 42.244,27.175 C42.282,26.947 42.377,26.662 42.776,26.662 C42.985,26.662 43.27,26.738 43.479,26.795 C44.486,27.023 45.55,27.156 46.614,27.156 C47.754,27.156 48.894,27.004 50.015,26.757 C50.11,26.738 50.224,26.719 50.319,26.719 C50.756,26.719 50.851,27.194 50.889,27.859 C50.908,28.182 50.946,28.866 50.946,29.189 C50.946,29.626 50.813,29.664 50.357,29.74 C49.217,29.949 48.058,30.006 46.918,30.006 C46.025,30.006 42.776,29.911 42.13,29.474 C41.997,29.379 41.94,29.246 41.94,29.075 Z M39.983,35.117 C39.983,34.851 40.249,34.699 40.724,34.49 C41.009,34.357 42.301,33.806 42.529,33.806 C42.776,33.806 42.833,33.996 42.871,34.281 C42.928,34.68 43.061,35.212 43.365,35.516 C44.087,36.257 45.284,36.295 46.272,36.295 C47.982,36.295 50.11,36.124 51.744,35.63 C51.877,35.592 52.048,35.554 52.181,35.554 C52.542,35.554 52.618,35.953 52.656,36.58 C52.675,36.903 52.732,37.872 52.732,38.119 C52.732,38.461 52.523,38.575 52.067,38.689 C50.661,39.031 47.811,39.221 46.348,39.221 C44.315,39.221 42.111,38.974 40.838,37.207 C40.496,36.732 39.983,35.687 39.983,35.117 Z M62.042,24.534 C62.441,24.534 64.284,24.705 64.702,24.781 C64.911,24.819 64.987,24.895 64.987,25.028 C64.987,25.161 64.892,25.237 64.797,25.313 C64.55,25.503 64.55,25.579 64.493,26.168 C64.474,26.301 64.341,27.517 64.341,27.688 C64.341,27.916 64.417,28.011 64.569,28.163 C64.778,28.353 65.158,28.847 65.158,29.132 C65.158,29.227 65.12,29.303 65.12,29.379 C65.12,29.493 65.196,29.512 65.215,29.512 C65.31,29.512 65.5,29.303 65.652,29.151 C66.469,28.372 67.457,27.593 68.635,27.593 C69.376,27.593 70.231,27.916 70.668,28.543 C71.105,29.151 71.105,30.006 71.105,30.728 C71.105,31.754 71.067,32.78 71.029,33.787 C71.01,34.414 70.953,35.041 70.953,35.649 C70.953,35.953 70.953,36.352 71.257,36.352 C71.523,36.352 72.283,35.516 72.492,35.288 C72.606,35.155 72.739,35.022 72.929,35.022 C73.176,35.022 73.48,35.63 73.575,35.82 C73.746,36.162 74.202,37.074 74.202,37.397 C74.202,37.606 73.993,37.796 73.575,38.138 C72.625,38.917 71.428,39.715 70.155,39.715 C69.49,39.715 68.901,39.316 68.578,38.765 C68.103,37.948 68.084,36.941 68.084,36.029 C68.084,34.186 68.331,32.267 68.331,31.26 C68.331,31.013 68.255,30.728 67.951,30.728 C67.229,30.728 65.063,32.856 64.512,33.426 C64.17,33.768 64.151,33.958 64.151,34.414 C64.151,35.972 64.189,38.366 64.36,39.886 C64.379,39.981 64.379,40.076 64.379,40.152 C64.379,40.342 64.227,40.38 64.037,40.399 C63.41,40.456 62.973,40.475 62.346,40.475 C61.548,40.475 61.282,40.456 61.282,40.095 C61.282,40.057 61.396,38.746 61.396,38.119 C61.396,37.986 61.377,37.815 61.225,37.815 C61.054,37.815 60.731,38.48 60.541,38.86 C60.503,38.955 60.465,39.031 60.446,39.069 C60.389,39.183 60.294,39.354 60.142,39.354 C59.743,39.354 58.147,38.024 58.147,37.625 C58.147,37.473 58.432,37.074 58.546,36.922 C59.515,35.478 60.503,33.844 61.396,32.343 C61.51,32.153 61.548,32.001 61.548,31.849 C61.548,31.659 61.51,31.488 61.301,31.488 C61.13,31.488 60.921,31.583 60.503,31.773 C60.066,31.963 59.344,32.229 59.078,32.229 C58.679,32.229 58.47,31.849 58.337,31.507 C58.204,31.184 57.767,29.968 57.767,29.683 C57.767,29.379 58.014,29.265 58.565,29.246 C59.116,29.17 61.168,28.79 61.491,28.448 C61.624,28.315 61.643,28.049 61.643,27.84 L61.643,27.688 C61.662,26.928 61.681,26.168 61.681,25.408 C61.681,25.218 61.662,25.047 61.662,24.857 C61.662,24.591 61.814,24.534 62.042,24.534 Z M82.144,24.99 C82.334,24.99 84.481,25.503 84.842,25.598 C85.127,25.674 85.336,25.731 85.336,25.902 C85.336,26.035 85.184,26.111 85.051,26.168 C84.728,26.32 84.652,26.833 84.576,27.384 L84.519,27.764 C84.5,27.878 84.481,27.973 84.481,28.011 C84.481,28.182 84.557,28.315 84.671,28.372 C84.861,28.467 85.07,28.467 85.127,28.467 C85.621,28.486 86.229,28.581 86.723,28.866 C87.977,29.569 88.3,30.747 88.3,32.115 C88.3,33.806 87.958,36.58 87.103,38.024 C86.191,39.563 84.842,40.152 83.094,40.152 C82.543,40.152 82.296,40.095 82.106,39.62 C81.935,39.183 81.688,38.176 81.688,37.701 C81.688,37.454 81.783,37.264 82.049,37.264 C82.315,37.264 82.581,37.283 82.847,37.283 C84.006,37.283 84.253,37.188 84.652,36.466 C85.203,35.459 85.507,33.426 85.507,32.267 C85.507,31.374 85.374,31.108 84.652,31.108 C84.006,31.108 83.835,31.184 83.664,31.811 C83.037,34.034 81.973,36.181 80.738,38.119 C80.472,38.537 79.712,39.696 79.389,39.981 C79.294,40.057 79.199,40.114 79.066,40.114 C78.648,40.114 76.824,39.107 76.824,38.48 C76.824,38.29 77.033,38.081 77.204,37.91 C78.059,37.055 79.674,35.174 80.605,32.59 C80.662,32.438 80.7,32.343 80.7,32.248 C80.7,32.058 80.586,31.963 80.396,31.963 C80.206,31.963 79.009,32.419 78.781,32.514 C78.667,32.571 78.553,32.628 78.42,32.628 C78.097,32.628 77.888,31.906 77.736,31.241 C77.641,30.804 77.451,30.044 77.451,29.854 C77.451,29.569 77.66,29.531 78.154,29.493 C79.408,29.379 79.864,29.265 81.08,28.999 C81.46,28.923 81.669,28.79 81.726,28.372 C81.821,27.669 81.878,26.377 81.878,25.636 L81.878,25.351 C81.878,25.161 81.916,24.99 82.144,24.99 Z M89.345,26.795 C89.592,26.795 89.763,26.985 89.915,27.156 C90.466,27.745 90.941,28.41 91.397,29.075 C91.435,29.151 91.511,29.246 91.587,29.379 C92.024,30.063 92.879,31.431 92.879,31.754 C92.879,32.362 91.131,33.369 90.618,33.369 C90.352,33.369 90.219,33.065 90.124,32.856 C89.383,31.317 88.68,29.854 87.483,28.581 C87.407,28.505 87.274,28.372 87.274,28.258 C87.274,27.821 88.87,26.795 89.345,26.795 Z M100.346,26.358 C100.346,26.073 101.182,24.439 101.809,24.439 C101.942,24.439 102.208,24.553 102.474,24.686 C103.329,25.123 104.602,25.921 105.134,26.301 C105.533,26.586 105.818,26.776 105.818,26.985 C105.818,27.403 104.697,29.056 104.146,29.056 C103.956,29.056 103.785,28.904 103.652,28.79 C102.778,28.049 101.809,27.403 100.821,26.833 C100.536,26.662 100.346,26.567 100.346,26.358 Z M99.301,27.916 C99.624,27.916 101.087,28.353 101.467,28.486 C101.923,28.638 102.322,28.752 102.322,28.961 C102.322,29.075 102.189,29.151 102.094,29.189 C101.847,29.303 101.828,29.398 101.714,29.854 C101.581,30.386 101.505,30.937 101.391,31.488 C101.372,31.621 101.334,31.773 101.334,31.925 C101.334,32.096 101.429,32.267 101.6,32.267 C101.771,32.267 102.55,31.811 102.74,31.697 C103.519,31.26 104.697,31.032 105.571,31.032 C106.863,31.032 108.06,31.488 108.934,32.457 C109.675,33.274 109.941,34.167 109.941,35.269 C109.941,36.39 109.694,37.378 108.915,38.214 C108.06,39.126 106.749,39.734 105.571,40.095 C104.887,40.304 103.519,40.627 102.835,40.627 C102.493,40.627 102.284,40.551 102.113,40.247 C101.828,39.734 101.505,38.67 101.505,38.138 C101.505,37.777 101.771,37.72 102.018,37.72 C103.5,37.701 107.091,37.321 107.091,35.307 C107.091,34.262 106.141,33.768 105.229,33.768 C103.405,33.768 101.429,35.497 100.365,36.865 C100.194,37.093 100.042,37.283 99.738,37.283 C99.434,37.283 97.762,37.017 97.762,36.352 C97.762,36.219 97.8,36.067 97.838,35.953 C98.56,33.464 98.883,30.386 98.883,28.942 C98.883,28.239 98.883,27.916 99.301,27.916 Z M116.966,41.577 L113.546,41.577 C113.166,41.577 112.805,41.634 112.425,41.634 C112.026,41.634 111.912,41.463 111.912,41.083 C111.912,40.646 112.045,40.494 112.463,40.494 C112.786,40.494 113.147,40.551 113.546,40.551 L116.662,40.551 C117.289,40.551 117.384,40.361 117.384,39.772 L117.384,26.548 C117.384,25.883 117.346,25.218 117.346,24.553 C117.346,24.097 117.46,23.926 117.935,23.926 C118.41,23.926 118.524,24.097 118.524,24.553 C118.524,25.218 118.467,25.883 118.467,26.548 L118.467,38.993 C118.467,39.544 118.486,40.095 118.486,40.646 C118.486,41.33 118.296,41.615 117.593,41.615 C117.403,41.615 117.27,41.577 116.966,41.577 Z M133.198,23.964 C133.407,23.964 135.212,24.743 135.516,24.876 C135.858,25.028 136.105,25.161 136.105,25.332 C136.105,25.484 135.896,25.541 135.763,25.579 C135.535,25.674 135.25,26.149 135.25,26.301 C135.25,26.453 135.345,26.51 135.478,26.51 C135.763,26.51 136.618,26.225 137.017,26.092 C137.169,26.035 137.378,25.959 137.549,25.959 C137.967,25.959 138.062,26.358 138.138,26.7 C138.233,27.08 138.366,27.84 138.366,28.239 C138.366,28.524 138.195,28.6 137.15,28.79 C136.105,28.98 134.813,29.208 133.635,29.341 C133.027,29.417 132.989,29.835 132.989,29.854 C132.989,29.949 133.084,29.987 133.16,29.987 C133.198,29.987 133.293,29.949 133.331,29.93 C133.882,29.74 134.376,29.645 134.946,29.645 C135.402,29.645 135.934,29.721 136.314,29.949 C136.846,30.253 136.979,30.5 137.226,31.032 C137.302,31.184 137.397,31.26 137.549,31.26 C137.739,31.26 138.746,30.69 139.316,30.367 C139.487,30.272 139.62,30.196 139.696,30.158 C139.772,30.12 139.867,30.063 139.943,30.063 C140.418,30.063 141.083,32.248 141.083,32.685 C141.083,32.932 140.893,32.989 140.513,33.122 C139.601,33.464 139.031,33.711 138.157,34.072 C137.701,34.262 137.625,34.433 137.625,34.946 C137.625,35.174 137.644,35.63 137.644,36.048 C137.644,37.264 137.625,37.283 136.561,37.283 C135.25,37.283 134.851,37.226 134.851,36.637 C134.851,36.466 134.87,36.295 134.889,36.124 L134.889,36.029 C134.889,35.896 134.813,35.763 134.661,35.763 C134.471,35.763 133.521,36.371 133.521,37.036 C133.521,37.986 135.136,37.986 135.801,37.986 C137.017,37.986 138.138,37.777 139.335,37.511 C139.506,37.473 139.677,37.454 139.81,37.454 C140.266,37.454 140.285,38.138 140.285,39.354 C140.285,40.076 140.247,40.266 139.696,40.38 C138.841,40.551 136.941,40.608 136.01,40.608 C134.68,40.608 133.806,40.513 132.685,40 C131.469,39.449 130.747,38.442 130.747,37.055 C130.747,35.269 132.096,34.243 133.483,33.426 C133.806,33.236 134.186,33.027 134.528,32.856 C134.699,32.78 134.851,32.685 134.851,32.476 C134.851,32.21 134.604,31.982 134.262,31.982 C133.54,31.982 132.229,32.647 131.659,33.084 C130.766,33.787 130.196,34.794 129.645,35.782 C129.588,35.896 129.512,35.991 129.36,35.991 C128.942,35.991 127.004,34.927 127.004,34.471 C127.004,34.319 127.118,34.205 127.346,33.958 C128.125,33.065 129.36,31.089 129.968,30.234 C130.063,30.101 130.082,30.044 130.082,29.968 C130.082,29.816 129.949,29.702 129.797,29.702 C129.569,29.702 129.303,29.721 129.056,29.721 C128.41,29.721 128.353,29.664 128.353,28.239 C128.353,27.061 128.429,27.042 129.037,27.042 C129.455,27.042 130.139,27.08 130.766,27.08 C131.697,27.08 131.868,27.004 132.02,26.738 C132.4,26.073 132.761,25.085 132.913,24.382 C132.97,24.097 133.008,23.964 133.198,23.964 Z M148.455,31.241 L158.145,31.241 C159.095,31.241 160.064,31.184 161.014,31.184 C161.565,31.184 161.622,31.469 161.622,32.191 L161.622,33.483 C161.622,34.262 161.565,34.509 161.014,34.509 C160.064,34.509 159.095,34.433 158.145,34.433 L148.455,34.433 C147.505,34.433 146.555,34.509 145.586,34.509 C145.035,34.509 144.978,34.243 144.978,33.483 L144.978,32.191 C144.978,31.469 145.035,31.184 145.586,31.184 C146.536,31.184 147.486,31.241 148.455,31.241 Z M172.172,35.193 C172.533,35.193 172.571,35.269 172.837,36.143 C173.065,36.884 173.274,37.72 173.35,38.157 C173.369,38.252 173.369,38.29 173.369,38.347 C173.369,38.841 172.134,39.031 171.849,39.031 C171.564,39.031 171.526,38.898 171.469,38.632 C171.279,37.644 171.127,36.884 170.88,36.029 C170.842,35.953 170.804,35.82 170.804,35.725 C170.804,35.364 171.925,35.193 172.172,35.193 Z M176.751,37.91 L176.751,38.005 C176.751,38.176 176.884,38.309 177.055,38.309 L179.354,38.309 C179.506,38.309 179.658,38.176 179.658,38.005 L179.658,37.91 C179.658,37.739 179.506,37.606 179.354,37.606 L177.055,37.606 C176.884,37.606 176.751,37.72 176.751,37.91 Z M176.751,35.155 L176.751,35.25 C176.751,35.44 176.884,35.554 177.055,35.554 L179.354,35.554 C179.506,35.554 179.658,35.421 179.658,35.25 L179.658,35.155 C179.658,35.003 179.506,34.851 179.354,34.851 L177.055,34.851 C176.884,34.851 176.751,35.003 176.751,35.155 Z M177.701,29.36 C177.777,29.36 178.48,28.486 178.48,28.315 C178.48,28.163 178.271,28.163 178.157,28.163 C177.891,28.163 177.644,28.182 177.644,28.6 L177.644,29.056 C177.644,29.227 177.644,29.36 177.701,29.36 Z M172.21,28.22 C171.526,29.341 170.861,30.405 170.139,31.469 C170.082,31.564 169.892,31.811 169.892,31.906 C169.892,32.02 170.025,32.039 170.101,32.039 C170.234,32.039 170.842,32.02 170.842,31.868 C170.842,31.735 170.728,31.488 170.671,31.355 C170.652,31.298 170.595,31.165 170.595,31.089 C170.595,30.709 171.659,30.405 171.944,30.405 C172.343,30.405 172.533,30.956 172.97,32.457 C173.065,32.761 173.16,33.084 173.464,33.084 C173.73,33.084 174.3,32.647 174.642,32.362 C174.737,32.286 174.794,32.248 174.851,32.21 C174.946,32.153 175.041,32.096 175.041,31.982 C175.041,31.868 174.889,31.849 174.813,31.849 C174.737,31.849 174.661,31.868 174.604,31.868 C174.148,31.868 173.711,31.906 173.255,31.906 C172.875,31.906 172.837,31.735 172.837,31.165 L172.837,30.006 C172.837,29.531 172.875,29.322 173.255,29.322 C173.768,29.322 174.281,29.379 174.794,29.379 C175.098,29.379 175.193,29.284 175.193,28.961 L175.193,28.752 C175.193,28.429 175.098,28.315 174.737,28.315 C174.414,28.315 174.091,28.334 173.768,28.334 C173.388,28.334 173.35,28.182 173.35,27.631 L173.35,26.529 C173.35,25.959 173.388,25.769 173.768,25.769 C174.015,25.769 174.262,25.807 174.509,25.807 C174.984,25.807 175.174,25.636 175.174,25.161 C175.174,24.914 175.136,24.61 175.136,24.363 C175.136,24.135 175.25,24.04 175.478,24.04 C175.744,24.04 177.207,24.173 177.53,24.211 C177.834,24.249 178.214,24.249 178.214,24.515 C178.214,24.667 178.119,24.762 177.986,24.838 C177.853,24.914 177.815,25.161 177.815,25.332 C177.815,25.56 177.986,25.788 178.347,25.788 C178.556,25.788 178.746,25.769 178.955,25.769 C179.297,25.769 179.354,25.997 179.354,26.301 L179.354,26.51 C179.354,26.662 179.354,26.795 179.449,26.795 C179.639,26.795 180.38,25.161 180.494,24.914 C180.551,24.781 180.589,24.667 180.779,24.667 C180.969,24.667 181.406,24.895 181.748,25.085 C181.843,25.142 181.9,25.18 181.976,25.218 C182.698,25.579 183.287,25.845 183.287,26.149 C183.287,26.32 183.154,26.377 183.002,26.396 C182.717,26.434 182.698,26.472 182.527,26.757 C182.185,27.327 181.482,28.391 181.102,28.942 C181.045,29.018 181.007,29.075 181.007,29.151 C181.007,29.303 181.102,29.36 181.235,29.36 C181.634,29.36 182.033,29.322 182.432,29.322 C182.831,29.322 182.869,29.474 182.869,30.158 L182.869,30.918 C182.869,31.773 182.869,31.906 182.432,31.906 C181.881,31.906 181.273,31.849 180.608,31.849 L179.24,31.849 C178.594,31.849 178.233,32.419 178.233,32.552 C178.233,32.723 178.461,32.723 178.727,32.723 L179.335,32.723 C179.905,32.723 180.494,32.685 181.064,32.685 C181.634,32.685 182.242,32.723 182.242,33.445 C182.242,33.882 182.204,34.319 182.204,34.775 L182.204,39.145 C182.204,39.753 182.261,40.57 182.261,40.912 C182.261,41.292 182.033,41.33 181.482,41.33 L180.475,41.33 C179.829,41.33 179.601,41.292 179.601,40.912 L179.601,40.855 C179.601,40.608 179.449,40.513 179.259,40.513 L177.169,40.513 C176.884,40.513 176.789,40.722 176.789,40.95 C176.789,41.292 176.523,41.33 175.953,41.33 L174.908,41.33 C174.262,41.33 174.034,41.292 174.034,40.912 C174.034,40.513 174.091,39.791 174.091,39.145 L174.091,36.39 C174.091,36.238 174.091,36.029 173.901,36.029 C173.844,36.029 173.787,36.048 173.73,36.067 C173.673,36.086 173.635,36.105 173.578,36.105 C173.236,36.105 172.799,35.44 172.609,35.193 C172.457,34.984 172.419,34.946 172.248,34.946 C172.153,34.946 172.077,34.965 172.001,34.965 C171.716,34.965 171.659,34.794 171.602,34.471 C171.564,34.281 171.526,34.186 171.317,34.186 C170.728,34.186 170.728,34.414 170.728,34.604 L170.728,37.796 C170.728,38.784 170.766,39.753 170.766,40.741 C170.766,41.273 170.576,41.311 169.968,41.311 L168.961,41.311 C168.372,41.311 168.182,41.273 168.182,40.76 C168.182,39.772 168.22,38.784 168.22,37.796 L168.22,36.409 C168.22,36.352 168.22,36.219 168.144,36.219 C167.992,36.219 167.954,36.542 167.935,36.827 C167.897,37.359 167.688,39.449 167.574,40.076 C167.517,40.437 167.441,40.589 167.156,40.589 C166.795,40.589 165.522,40.304 165.522,39.867 C165.522,39.734 165.636,39.297 165.674,39.145 C165.807,38.518 165.94,37.378 165.997,36.713 C166.016,36.447 166.035,36.238 166.054,36.067 C166.111,35.421 166.13,35.326 166.301,35.326 C166.567,35.326 167.745,35.573 167.992,35.573 C168.163,35.573 168.22,35.497 168.22,35.326 L168.22,34.946 C168.22,34.775 168.163,34.699 167.992,34.699 C167.878,34.699 167.327,34.775 167.099,34.813 C166.852,34.851 166.833,34.851 166.738,35.003 C166.681,35.098 166.548,35.174 166.434,35.174 C166.149,35.174 166.111,34.984 165.902,33.863 C165.845,33.578 165.769,33.217 165.693,32.799 C165.674,32.704 165.655,32.59 165.655,32.514 C165.655,32.267 165.902,32.267 166.073,32.267 C166.7,32.267 167.042,32.267 167.308,31.906 C167.479,31.678 167.745,31.279 167.745,30.975 C167.745,30.69 167.365,30.405 167.118,30.196 C166.662,29.816 166.225,29.512 165.731,29.151 C165.617,29.075 165.503,29.018 165.503,28.866 C165.503,28.657 166.339,26.947 166.7,26.947 C166.776,26.947 166.871,26.985 166.928,27.042 C166.966,27.061 167.004,27.08 167.061,27.08 C167.194,27.08 167.251,26.89 167.403,26.51 C167.688,25.807 167.935,25.161 168.182,24.363 C168.258,24.116 168.296,24.04 168.467,24.04 C168.714,24.04 169.588,24.439 169.854,24.553 C170.443,24.8 170.633,24.857 170.633,25.047 C170.633,25.199 170.519,25.275 170.348,25.313 C170.158,25.351 170.044,25.408 169.949,25.598 C169.607,26.301 169.227,27.061 168.923,27.65 C168.809,27.859 168.638,28.144 168.638,28.277 C168.638,28.429 168.828,28.695 168.999,28.695 C169.17,28.695 169.246,28.486 169.379,28.201 C169.626,27.688 169.873,27.156 170.12,26.643 C170.234,26.415 170.272,26.244 170.5,26.244 C170.709,26.244 171.317,26.586 171.735,26.814 L172.039,26.966 C172.59,27.232 172.932,27.346 172.932,27.631 C172.932,27.84 172.799,27.878 172.628,27.916 C172.4,27.973 172.343,28.011 172.21,28.22 Z M187.479,33.445 C187.479,31.108 187.802,29.303 188.391,27.061 C188.486,26.7 188.581,26.339 188.638,26.035 C188.695,25.674 188.714,25.503 188.961,25.503 C189.132,25.503 190.956,26.168 191.773,26.529 C192.153,26.7 192.267,26.814 192.267,26.909 C192.267,26.985 192.21,27.023 192.134,27.061 C191.697,27.27 191.602,27.422 191.431,27.84 C190.804,29.303 190.272,31.507 190.272,33.236 C190.272,34.281 190.272,34.794 190.519,34.794 C190.652,34.794 190.747,34.642 190.842,34.49 C190.956,34.3 191.07,34.091 191.279,34.091 C191.507,34.091 192.267,34.737 192.267,35.022 C192.267,35.288 191.431,36.751 191.431,37.777 C191.431,37.91 191.469,38.385 191.507,38.67 C191.526,38.784 191.564,39.107 191.564,39.221 C191.564,39.924 190.158,40.475 189.569,40.475 C189.208,40.475 189.037,40.228 188.695,39.544 C187.764,37.663 187.479,35.535 187.479,33.445 Z M193.255,28.714 C193.255,27.308 193.331,26.985 193.787,26.985 C193.901,26.985 194.205,27.023 194.376,27.061 C195.098,27.213 196.143,27.327 196.884,27.327 C197.834,27.327 198.784,27.175 199.696,26.947 C199.867,26.909 199.962,26.89 200.076,26.89 C200.437,26.89 200.551,27.289 200.589,27.574 C200.646,28.049 200.703,28.657 200.703,29.132 C200.703,29.588 200.646,29.721 200.152,29.797 C199.088,29.949 198.024,30.025 196.96,30.025 C196.39,30.025 193.768,29.93 193.407,29.626 C193.255,29.493 193.255,28.923 193.255,28.714 Z M193.597,35.06 C193.692,35.06 193.768,35.155 193.825,35.212 C194.623,36.162 195.25,36.485 196.485,36.485 C197.891,36.485 199.297,36.257 200.646,35.877 C200.779,35.839 200.969,35.801 201.102,35.801 C201.349,35.801 201.463,36.048 201.482,36.219 C201.558,36.732 201.577,37.815 201.577,38.195 C201.577,38.442 201.558,38.575 201.311,38.689 C200.646,39.012 197.473,39.297 196.618,39.297 C193.559,39.297 192.21,37.777 192.21,37.34 C192.21,36.979 193.16,35.06 193.597,35.06 Z M219.651,33.939 C217.941,34.262 216.231,34.471 214.502,34.623 C214.388,34.623 214.122,34.623 214.122,34.794 C214.122,34.908 214.198,34.946 214.35,34.946 L218.948,34.946 C219.537,34.946 220.126,34.927 220.715,34.927 C221.304,34.927 222.007,34.984 222.007,35.725 C222.007,36.143 221.76,36.941 221.57,37.473 C221.152,38.689 220.924,39.278 220.316,40.095 C219.936,40.589 219.385,40.893 218.796,41.064 C218.378,41.178 217.333,41.254 216.82,41.254 C216.421,41.254 215.775,41.235 215.775,39.411 C215.775,38.993 215.87,38.803 216.193,38.803 C216.516,38.803 216.82,38.898 217.238,38.898 C217.542,38.898 217.903,38.86 218.169,38.708 C218.473,38.537 218.796,37.929 218.796,37.587 C218.796,37.302 218.606,37.264 218.264,37.264 L213.761,37.264 C213.362,37.264 213.248,37.549 213.134,37.853 C212.678,38.993 212.602,39.107 212.279,39.107 C211.88,39.107 211.006,38.841 210.607,38.689 C210.379,38.594 210.17,38.442 210.17,38.157 C210.17,38.043 210.208,37.948 210.265,37.834 C210.417,37.549 210.949,36.371 210.949,36.105 C210.949,36.029 210.93,35.991 210.854,35.991 C210.721,35.991 210.474,36.105 210.36,36.162 C209.923,36.352 208.517,36.998 208.099,36.998 C207.434,36.998 206.864,35.554 206.864,35.06 C206.864,34.756 207.092,34.699 207.586,34.566 C207.681,34.528 207.795,34.509 207.909,34.471 C208.764,34.224 210.512,33.654 211.253,33.255 C211.424,33.16 211.557,33.008 211.595,32.837 C211.614,32.742 211.614,32.628 211.614,32.552 C211.633,32.305 211.633,32.134 211.975,32.134 C212.127,32.134 212.45,32.172 212.602,32.191 C212.716,32.21 212.849,32.21 212.963,32.21 C213.476,32.21 214.54,31.431 214.54,31.317 C214.54,31.222 214.388,31.203 214.331,31.203 L209.733,31.203 C208.935,31.203 208.137,31.26 207.32,31.26 C206.902,31.26 206.864,31.051 206.864,30.481 L206.864,29.645 C206.864,29.094 206.902,28.904 207.339,28.904 C208.137,28.904 208.935,28.942 209.733,28.942 L212.412,28.942 C212.659,28.942 212.868,28.733 212.868,28.486 L212.868,28.429 C212.868,28.182 212.659,27.973 212.412,27.973 L211.234,27.973 C210.645,27.973 210.037,28.011 209.448,28.011 C209.03,28.011 208.973,27.783 208.973,27.346 L208.973,26.51 C208.973,26.054 209.068,25.864 209.448,25.864 C210.037,25.864 210.645,25.902 211.234,25.902 L212.317,25.902 C212.583,25.902 212.849,25.731 212.849,25.275 C212.849,25.104 212.83,24.838 212.811,24.648 C212.792,24.61 212.792,24.534 212.792,24.477 C212.792,24.23 212.982,24.192 213.191,24.192 C213.647,24.192 215.072,24.287 215.604,24.325 C215.794,24.344 216.136,24.306 216.136,24.61 C216.136,24.743 216.041,24.8 215.927,24.914 C215.813,25.047 215.775,25.199 215.775,25.37 C215.775,25.75 216.022,25.902 216.364,25.902 C216.877,25.902 217.371,25.864 217.884,25.864 C218.34,25.864 218.378,26.054 218.378,26.567 L218.378,27.289 C218.378,27.764 218.34,28.011 217.922,28.011 C217.314,28.011 216.725,27.973 216.117,27.973 L215.946,27.973 C215.851,27.973 215.756,28.087 215.756,28.201 L215.756,28.486 C215.756,28.733 215.965,28.942 216.212,28.942 L217.048,28.942 C217.371,28.942 217.599,28.752 217.808,28.505 C218.473,27.745 219.575,26.282 220.012,25.37 C220.069,25.237 220.126,25.066 220.316,25.066 C220.487,25.066 220.924,25.294 221.247,25.465 C221.361,25.522 221.456,25.579 221.532,25.617 C221.608,25.655 221.703,25.693 221.798,25.75 C222.273,25.978 222.9,26.301 222.9,26.529 C222.9,26.7 222.729,26.776 222.577,26.814 C222.273,26.871 222.14,27.061 221.798,27.517 C221.646,27.726 221.456,27.992 221.19,28.315 C221.095,28.41 220.886,28.657 220.886,28.771 C220.886,28.923 221,28.942 221.361,28.942 C221.988,28.942 222.615,28.904 223.261,28.904 C223.698,28.904 223.736,29.094 223.736,29.645 L223.736,30.481 C223.736,31.051 223.698,31.26 223.28,31.26 C222.463,31.26 221.665,31.203 220.848,31.203 L218.834,31.203 C218.435,31.203 218.302,31.298 217.884,31.659 C217.751,31.773 217.58,31.906 217.371,32.077 C217.314,32.134 217.143,32.248 217.143,32.343 C217.143,32.4 217.181,32.419 217.238,32.419 C217.409,32.419 218.701,31.963 218.967,31.887 C219.1,31.83 219.214,31.754 219.328,31.754 C219.575,31.754 219.727,31.963 220.278,32.647 C220.43,32.837 220.601,33.046 220.81,33.312 C220.905,33.445 221.133,33.692 221.133,33.844 C221.133,33.958 221.057,34.034 220.943,34.034 C220.753,34.034 220.506,33.958 220.316,33.92 C220.259,33.901 220.164,33.882 220.088,33.882 C219.936,33.882 219.803,33.92 219.651,33.939 Z M236.124,27.992 C236.428,27.897 236.903,27.745 237.112,27.745 C237.663,27.745 238.822,29.474 238.822,29.816 C238.822,30.044 238.632,30.158 238.461,30.272 C237.967,30.633 236.941,31.564 236.466,32.001 C236.181,32.267 236.01,32.457 236.01,32.59 C236.01,32.818 236.143,32.894 236.447,33.008 C237.359,33.35 237.644,34.053 237.644,34.984 C237.644,35.478 237.587,35.972 237.511,36.466 C237.473,36.694 237.378,37.283 237.378,37.492 C237.378,37.72 237.454,37.872 237.701,37.872 C238.328,37.872 239.43,37.245 239.962,36.922 C240,36.903 240.057,36.865 240.114,36.827 C240.418,36.637 240.855,36.371 241.121,36.371 C241.311,36.371 241.349,36.561 241.368,36.713 C241.425,37.074 241.501,38.252 241.501,38.613 C241.501,39.278 241.425,39.392 241.121,39.544 C240.171,40.019 238.309,40.589 237.264,40.589 C235.915,40.589 234.623,39.582 234.623,38.157 C234.623,37.302 234.927,36.219 234.927,35.535 C234.927,35.345 234.851,35.155 234.623,35.155 C233.122,35.155 230.386,39.392 229.873,40.038 C229.55,40.456 229.36,40.722 229.189,40.722 C228.676,40.722 226.966,39.392 226.966,38.746 C226.966,38.537 227.194,38.252 227.935,37.644 C228.41,37.245 230.272,35.25 231.127,34.3 C231.868,33.464 232.628,32.647 233.388,31.83 C233.483,31.735 233.635,31.583 233.635,31.45 C233.635,31.355 233.559,31.279 233.445,31.279 C233.369,31.279 232.305,31.602 232.115,31.659 C231.735,31.754 230.709,32.058 230.367,32.058 C230.177,32.058 230.025,31.982 229.835,31.678 C229.531,31.184 228.904,30.082 228.904,29.607 C228.904,29.322 229.094,29.246 229.379,29.227 C230.937,29.132 232.647,28.79 234.186,28.467 C234.357,28.429 234.49,28.391 234.49,28.258 C234.49,28.125 234.395,28.068 234.224,28.011 C233.502,27.764 232.818,27.498 232.077,27.289 C231.317,27.08 230.975,27.004 230.975,26.662 C230.975,26.491 231.184,25.788 231.374,25.275 C231.659,24.496 231.697,24.439 231.925,24.439 C232.134,24.439 232.362,24.515 232.571,24.591 C233.426,24.876 234.3,25.18 235.174,25.446 C235.877,25.655 236.181,25.731 236.181,26.035 C236.181,26.339 235.877,27.232 235.763,27.536 C235.725,27.631 235.706,27.707 235.706,27.783 C235.706,27.916 235.82,28.03 235.953,28.03 C236.01,28.03 236.086,28.011 236.124,27.992 Z M252.312,24.8 C252.673,24.8 254.592,25.047 255.067,25.123 C255.162,25.142 255.333,25.161 255.333,25.313 C255.333,25.408 255.276,25.522 255.2,25.636 C254.953,26.016 254.896,26.396 254.896,26.833 C254.896,27.08 255.067,27.27 255.314,27.27 C255.656,27.27 257.499,26.852 257.993,26.738 C258.297,26.662 258.62,26.586 258.772,26.586 C259.038,26.586 259.133,26.966 259.171,27.175 C259.266,27.65 259.38,28.315 259.38,28.79 C259.38,29.246 259.152,29.322 258.544,29.436 C257.594,29.607 256.606,29.759 255.637,29.892 C255.181,29.949 254.972,30.006 254.972,30.405 C254.972,30.671 255.105,30.88 255.39,30.88 C255.656,30.88 257.081,30.576 257.404,30.481 C257.556,30.443 257.746,30.405 257.879,30.405 C258.031,30.405 258.126,30.557 258.202,30.804 C258.335,31.203 258.335,32.115 258.335,32.628 C258.335,33.236 257.746,33.312 255.998,33.502 C255.238,33.578 255.086,33.673 255.086,34.015 C255.086,35.06 255.105,35.212 255.694,35.402 C256.492,35.668 259.038,36.751 259.038,37.644 C259.038,38.062 258.24,39.487 257.632,39.487 C257.366,39.487 256.872,39.107 256.207,38.613 C256.036,38.48 255.599,38.157 255.371,38.157 C255.105,38.157 255.029,38.366 254.934,38.575 C254.326,40.057 252.806,40.475 251.324,40.475 C250.602,40.475 249.671,40.342 249.006,39.886 C248.246,39.373 247.809,38.518 247.809,37.644 C247.809,36.827 248.227,36.029 248.892,35.554 C249.709,34.965 250.849,34.775 251.837,34.775 L252.046,34.775 C252.312,34.775 252.445,34.604 252.445,34.357 C252.445,33.977 252.198,33.844 252.008,33.844 C251.666,33.844 250.488,33.939 249.652,33.939 C248.93,33.939 248.74,33.92 248.626,33.407 C248.512,32.932 248.36,32.305 248.36,31.64 C248.36,31.355 248.398,31.089 248.74,31.089 C249.291,31.089 250.108,31.184 251.02,31.184 L251.533,31.184 C252.008,31.184 252.369,31.146 252.369,30.728 C252.369,30.462 252.217,30.253 251.913,30.253 C251.267,30.253 250.108,30.329 249.215,30.329 L248.645,30.329 C247.885,30.329 247.277,30.31 247.163,30.044 C246.973,29.569 246.954,28.6 246.954,28.049 C246.954,27.783 246.973,27.46 247.334,27.46 C247.695,27.46 249.69,27.631 250.944,27.631 L251.362,27.631 C251.818,27.631 252.16,27.593 252.16,27.194 C252.16,27.023 252.065,25.959 252.008,25.617 C251.97,25.446 251.951,25.256 251.951,25.085 C251.951,24.857 252.084,24.8 252.312,24.8 Z M251.875,37.093 C251.495,37.093 250.298,37.131 250.298,37.682 C250.298,38.138 251.001,38.157 251.324,38.157 C251.837,38.157 252.464,38.024 252.464,37.378 C252.464,37.112 252.236,37.093 251.875,37.093 Z M267.215,25.389 C267.652,25.389 269.704,25.807 270.312,25.94 C270.464,25.978 270.73,26.054 270.73,26.206 C270.73,26.282 270.654,26.339 270.597,26.358 C270.293,26.529 270.255,26.757 270.16,27.232 C269.685,29.569 269.552,31.963 269.552,34.338 C269.552,35.839 269.552,37.378 271.072,37.378 C272.269,37.378 273.409,36.675 274.131,35.763 C274.758,34.984 275.176,33.977 275.347,33.008 C275.423,32.628 275.48,32.286 275.803,32.286 C276.221,32.286 276.791,32.799 277.095,33.065 C277.437,33.369 278.007,33.882 278.007,34.357 C278.007,34.927 277.475,36.181 277.19,36.694 C275.974,38.936 273.827,40.418 271.224,40.418 C269.875,40.418 268.431,39.962 267.557,38.86 C266.607,37.644 266.493,35.63 266.493,34.11 C266.493,31.925 266.683,29.588 266.835,27.536 C266.873,27.137 266.892,26.491 266.892,26.054 C266.892,25.636 266.892,25.389 267.215,25.389 Z M287.502,28.049 C287.787,28.049 289.288,28.258 289.592,28.315 C289.763,28.353 289.972,28.448 289.972,28.657 C289.972,28.771 289.915,28.828 289.839,28.904 C289.649,29.094 289.649,29.246 289.63,29.493 C289.611,29.721 289.573,30.196 289.573,30.424 C289.573,30.633 289.592,30.975 289.991,30.975 C290.314,30.975 291.416,30.576 291.777,30.443 C291.929,30.386 292.024,30.348 292.138,30.348 C292.404,30.348 292.518,30.538 292.689,30.994 C292.803,31.279 293.088,31.982 293.088,32.286 C293.088,32.552 292.936,32.609 292.594,32.704 C291.853,32.932 290.998,33.141 290.314,33.236 C289.915,33.293 289.592,33.388 289.592,33.863 C289.592,34.072 289.649,35.079 289.668,35.345 C289.687,35.649 289.915,35.801 290.2,35.877 C290.979,36.086 292.119,36.542 292.86,36.903 C293.449,37.188 293.81,37.378 293.81,37.701 C293.81,38.138 293.069,39.411 292.594,39.411 C292.48,39.411 292.309,39.297 292.214,39.221 C291.872,38.993 290.542,38.195 290.181,38.195 C289.877,38.195 289.82,38.442 289.706,38.841 C289.364,40.076 287.882,40.494 286.742,40.494 C285.203,40.494 283.455,39.829 283.455,38.024 C283.455,36.181 285.298,35.402 286.875,35.364 C287.16,35.364 287.388,35.155 287.388,34.87 C287.388,34.775 287.331,33.863 287.331,33.787 C287.293,32.248 287.331,30.12 287.084,28.676 C287.065,28.562 287.046,28.467 287.046,28.372 C287.046,28.106 287.293,28.049 287.502,28.049 Z M287.141,37.473 C286.818,37.473 285.64,37.53 285.64,37.986 C285.64,38.347 286.324,38.385 286.59,38.385 C287.008,38.385 287.559,38.309 287.559,37.758 C287.559,37.473 287.35,37.473 287.141,37.473 Z M305.965,28.733 C308.796,28.733 310.981,30.348 310.981,33.331 C310.981,36.523 308.53,39.278 305.813,40.703 C305.509,40.874 304.787,41.216 304.445,41.216 C303.628,41.216 302.469,39.221 302.469,38.879 C302.469,38.689 302.659,38.613 302.811,38.575 C304.16,38.176 305.3,37.644 306.326,36.694 C307.238,35.858 307.922,34.813 307.922,33.54 C307.922,32.286 306.991,31.526 305.775,31.526 C304.312,31.526 302.963,32.324 301.842,33.198 C301.747,33.293 301.576,33.388 301.443,33.388 C300.816,33.388 299.961,31.431 299.961,30.804 C299.961,30.5 300.265,30.348 300.493,30.234 C302.013,29.474 304.255,28.733 305.965,28.733 Z M303.058,24.496 C303.191,24.496 303.343,24.572 303.457,24.629 C304.673,25.218 307.048,25.522 308.416,25.617 C308.872,25.655 309.043,25.693 309.043,25.94 C309.043,26.111 308.967,26.586 308.891,27.061 C308.796,27.688 308.682,28.467 308.131,28.467 C307.181,28.467 304.521,27.878 303.552,27.612 C302.355,27.289 302.032,27.194 302.032,26.89 C302.032,26.51 302.431,25.427 302.583,25.028 C302.659,24.819 302.773,24.496 303.058,24.496 Z M318.265,35.231 C319.766,35.231 320.982,36.447 320.982,37.948 C320.982,39.449 319.766,40.665 318.265,40.665 C316.783,40.665 315.567,39.449 315.567,37.948 C315.567,36.447 316.764,35.231 318.265,35.231 Z M318.265,36.352 C317.391,36.352 316.669,37.055 316.669,37.948 C316.669,38.822 317.391,39.544 318.265,39.544 C319.158,39.544 319.88,38.822 319.88,37.948 C319.88,37.055 319.158,36.352 318.265,36.352 Z" id="「これから」を一緒に考えましょう。"></path>
            </g>
        </g>
    </g>
</svg>