<?xml version="1.0" encoding="utf-8"?>
<!-- Generator: Adobe Illustrator 19.1.0, SVG Export Plug-In . SVG Version: 6.00 Build 0)  -->
<svg version="1.1" id="レイヤー_1" xmlns="http://www.w3.org/2000/svg" xmlns:xlink="http://www.w3.org/1999/xlink" x="0px"
	 y="0px" viewBox="0 0 200 200" style="enable-background:new 0 0 200 200;" xml:space="preserve">
<style type="text/css">
	.st0{fill:#231815;}
	.st1{fill:#D71B18;}
</style>
<g>
	<g>
		<polygon class="st0" points="72,59.6 72,69.4 99.2,64.3 99.2,96.9 109.2,96.9 109.1,62.5 125.3,59.4 125.4,49.6 		"/>
		<polyline class="st0" points="152.7,61.8 180.3,61.8 180.3,96.7 189.8,96.7 189.8,52.3 131.5,52.3 131.5,61.8 145.3,61.8 		"/>
		<polygon class="st0" points="153.2,49 143.5,48.8 143.5,96.9 153.1,96.9 		"/>
		<polygon class="st0" points="10.3,52.7 10.2,62.3 18.6,62.4 18.6,96.9 63.7,96.9 63.8,87.4 28.1,87.4 28.1,62.5 56.6,62.4 
			52.5,77.4 62.3,77.4 69.1,52.8 28.1,52.8 28.1,48.9 18.6,48.8 18.6,52.8 		"/>
	</g>
	<g>
		<rect x="10.2" y="121.3" class="st0" width="179.6" height="9.4"/>
		<polyline class="st0" points="59.9,133.3 34.2,146.9 20.1,147 20,137.7 27.1,139.7 49.5,127.3 		"/>
		<polyline class="st0" points="59.9,133.3 85.5,146.9 99.6,147 99.7,137.7 92.6,139.7 70.3,127.3 		"/>
		<rect x="53.6" y="101.9" class="st0" width="12.1" height="49.3"/>
		<polygon class="st0" points="96.1,104 96.1,113.4 23.5,113.4 23.5,104 		"/>
	</g>
	<g>
		<rect x="143.5" y="101.8" class="st0" width="12.1" height="49.3"/>
		<g>
			<rect x="109" y="104" class="st0" width="80.7" height="9.5"/>
			<polyline class="st0" points="150.4,133.1 124.8,146.7 110.7,146.8 110.6,137.5 117.7,139.5 140,127.1 			"/>
			<polyline class="st0" points="149.6,133.1 175.2,146.7 189.4,146.8 189.4,137.5 182.3,139.5 160,127.1 			"/>
			<path class="st1" d="M137.5,117.1c0,3.1-2.5,5.7-5.7,5.7c-3.1,0-5.7-2.5-5.7-5.7c0-3.1,2.5-5.7,5.7-5.7
				C134.9,111.4,137.5,114,137.5,117.1"/>
			<path class="st1" d="M173.1,117.1c0,3.1-2.5,5.7-5.7,5.7c-3.1,0-5.7-2.5-5.7-5.7c0-3.1,2.5-5.7,5.7-5.7
				C170.5,111.4,173.1,114,173.1,117.1"/>
		</g>
	</g>
</g>
</svg>
